<svg id="Capa_1" enable-background="new 0 0 512 512" height="512" viewBox="0 0 512 512" width="512" xmlns="http://www.w3.org/2000/svg"><g id="XMLID_2534_"><path id="XMLID_2551_" d="m30 128v148c0 124.816 101.184 226 226 226 124.816 0 226-101.184 226-226v-148h-74.231c-38.504-39.477-92.268-64-151.769-64s-113.265 24.523-151.768 64z" fill="#fff"/><circle id="XMLID_2550_" cx="256" cy="276" fill="#99c3ff" r="148"/><circle id="XMLID_2549_" cx="256" cy="276" fill="#89a7bc" r="49.333"/><path id="XMLID_2548_" d="m10 10v118h94.232c38.503-39.477 92.267-64 151.768-64s113.265 24.523 151.768 64h94.232v-118z" fill="#a7bcce"/><g id="XMLID_389_"><path id="XMLID_818_" d="m502 0h-492c-5.523 0-10 4.477-10 10v118c0 5.523 4.477 10 10 10h10v138c0 63.038 24.548 122.303 69.123 166.877 44.574 44.575 103.839 69.123 166.877 69.123s122.303-24.548 166.877-69.123c44.575-44.574 69.123-103.839 69.123-166.877v-138h10c5.522 0 10-4.477 10-10v-118c0-5.523-4.478-10-10-10zm-10 118h-80.072c-30.162-29.784-67.786-50.166-109.072-59.042-5.395-1.164-10.717 2.275-11.878 7.675-1.161 5.399 2.275 10.717 7.675 11.878 38.806 8.344 74.062 27.871 101.957 56.472 1.883 1.93 4.464 3.018 7.159 3.018h64.231v138c0 119.103-96.897 216-216 216s-216-96.898-216-216.001v-138h64.231c2.695 0 5.276-1.088 7.159-3.018 27.89-28.596 63.14-48.121 101.938-56.467 5.399-1.161 8.835-6.479 7.674-11.879-1.162-5.4-6.482-8.837-11.879-7.674-41.278 8.88-78.893 29.26-109.051 59.038h-80.072v-98h472z"/><path id="XMLID_829_" d="m98 276c0 87.121 70.879 158 158 158s158-70.879 158-158-70.879-158-158-158-158 70.879-158 158zm296 0c0 76.094-61.906 138-138 138s-138-61.906-138-138 61.906-138 138-138 138 61.906 138 138z"/><path id="XMLID_843_" d="m196.667 276c0 32.717 26.616 59.333 59.333 59.333s59.333-26.616 59.333-59.333-26.616-59.333-59.333-59.333-59.333 26.616-59.333 59.333zm98.666 0c0 21.689-17.645 39.333-39.333 39.333s-39.333-17.644-39.333-39.333 17.644-39.333 39.333-39.333 39.333 17.644 39.333 39.333z"/><path id="XMLID_844_" d="m248.93 170.26c-1.86 1.86-2.93 4.44-2.93 7.07s1.069 5.21 2.93 7.069c1.86 1.87 4.44 2.931 7.07 2.931s5.21-1.061 7.069-2.931c1.86-1.859 2.931-4.43 2.931-7.069 0-2.63-1.07-5.21-2.931-7.07-1.859-1.86-4.439-2.93-7.069-2.93s-5.21 1.069-7.07 2.93z"/><path id="XMLID_845_" d="m256 364.67c-2.63 0-5.21 1.06-7.07 2.93-1.86 1.86-2.93 4.43-2.93 7.07 0 2.63 1.069 5.21 2.93 7.07 1.86 1.859 4.44 2.93 7.07 2.93s5.21-1.07 7.069-2.93c1.86-1.86 2.931-4.44 2.931-7.07s-1.07-5.21-2.931-7.07c-1.859-1.871-4.439-2.93-7.069-2.93z"/><path id="XMLID_846_" d="m354.67 286c2.63 0 5.21-1.07 7.07-2.931 1.859-1.859 2.93-4.439 2.93-7.069s-1.07-5.21-2.93-7.07-4.44-2.93-7.07-2.93-5.21 1.069-7.07 2.93c-1.87 1.86-2.93 4.44-2.93 7.07s1.06 5.21 2.93 7.069c1.85 1.861 4.43 2.931 7.07 2.931z"/><path id="XMLID_847_" d="m157.33 266c-2.63 0-5.21 1.069-7.07 2.93-1.86 1.86-2.93 4.44-2.93 7.07s1.069 5.21 2.93 7.069c1.86 1.86 4.44 2.931 7.07 2.931 2.64 0 5.21-1.07 7.069-2.931 1.87-1.859 2.931-4.439 2.931-7.069s-1.061-5.21-2.931-7.07c-1.859-1.861-4.439-2.93-7.069-2.93z"/><path id="XMLID_848_" d="m325.77 216.23c2.63 0 5.21-1.069 7.07-2.93 1.86-1.86 2.93-4.43 2.93-7.07 0-2.63-1.069-5.2-2.93-7.069-1.86-1.86-4.44-2.931-7.07-2.931-2.64 0-5.21 1.07-7.08 2.931-1.85 1.859-2.92 4.439-2.92 7.069 0 2.641 1.07 5.221 2.92 7.07 1.87 1.86 4.45 2.93 7.08 2.93z"/><path id="XMLID_849_" d="m186.23 335.77c-2.63 0-5.21 1.061-7.069 2.931-1.86 1.859-2.931 4.43-2.931 7.069 0 2.63 1.07 5.21 2.931 7.07 1.859 1.86 4.439 2.93 7.069 2.93s5.21-1.069 7.07-2.93c1.86-1.86 2.93-4.44 2.93-7.07 0-2.64-1.069-5.21-2.93-7.069-1.861-1.871-4.441-2.931-7.07-2.931z"/><path id="XMLID_850_" d="m325.77 355.77c2.63 0 5.21-1.069 7.07-2.93 1.86-1.86 2.93-4.44 2.93-7.07s-1.069-5.21-2.93-7.069c-1.86-1.87-4.44-2.931-7.07-2.931-2.64 0-5.21 1.061-7.069 2.931-1.86 1.859-2.931 4.439-2.931 7.069s1.07 5.21 2.931 7.07c1.859 1.86 4.429 2.93 7.069 2.93z"/><path id="XMLID_851_" d="m186.23 196.23c-2.63 0-5.21 1.07-7.069 2.931-1.86 1.859-2.931 4.439-2.931 7.069 0 2.641 1.07 5.21 2.931 7.07 1.859 1.86 4.439 2.93 7.069 2.93s5.21-1.069 7.07-2.93c1.87-1.86 2.93-4.44 2.93-7.07s-1.06-5.2-2.93-7.069c-1.861-1.861-4.43-2.931-7.07-2.931z"/><path id="XMLID_852_" d="m256 74c2.63 0 5.21-1.07 7.069-2.931 1.861-1.859 2.931-4.439 2.931-7.069s-1.07-5.21-2.931-7.07c-1.859-1.861-4.439-2.93-7.069-2.93s-5.21 1.069-7.07 2.93c-1.86 1.86-2.93 4.44-2.93 7.07s1.069 5.21 2.93 7.069c1.86 1.861 4.44 2.931 7.07 2.931z"/></g></g></svg>