<svg id="Capa_1" enable-background="new 0 0 512 512" height="512" viewBox="0 0 512 512" width="512" xmlns="http://www.w3.org/2000/svg"><g id="XMLID_1492_"><path id="XMLID_1435_" d="m480.786 274.325c13.107-13.107 21.214-31.215 21.214-51.216 0-26.722-14.422-50.065-35.955-62.617 3.872 8.636 6.075 18.21 6.075 28.288 0 19.098-7.734 36.389-20.242 48.913l.003-.003c-13.107 13.107-21.214 31.215-21.214 51.216 0 26.722 14.422 50.065 35.955 62.618-3.872-8.636-6.075-18.211-6.075-28.288 0-19.098 7.734-36.389 20.242-48.913z" fill="#c3d3dd"/><path id="XMLID_1434_" d="m412.034 123.84c13.107-13.107 21.214-31.215 21.214-51.216 0-26.722-14.422-50.065-35.955-62.618 3.872 8.636 6.075 18.21 6.075 28.288 0 19.098-7.734 36.389-20.242 48.913l.003-.003c-13.107 13.107-21.214 31.215-21.214 51.216 0 26.722 14.422 50.065 35.955 62.618-3.872-8.636-6.075-18.211-6.075-28.288 0-19.098 7.734-36.389 20.242-48.912z" fill="#c3d3dd"/><path id="XMLID_1377_" d="m437.929 405.493-318.674-318.674c-24.993-24.994-65.516-24.994-90.51 0-24.993 24.994-24.993 65.516 0 90.51l318.675 318.674c8.006 8.006 20.986 8.006 28.991 0l61.518-61.518c8.006-8.006 8.006-20.986 0-28.992z" fill="#c68a65"/><path id="XMLID_1381_" d="m347.42 496.003c8.006 8.006 20.986 8.006 28.991 0l61.518-61.518c8.006-8.006 8.006-20.986 0-28.992l-30.759-30.759-90.51 90.509z" fill="#ff7b79"/><circle id="XMLID_1193_" cx="226.151" cy="284.224" fill="#fff" r="49.333"/><g id="XMLID_223_"><path id="XMLID_729_" d="m274.511 227.933c-.013-.013-.025-.026-.038-.039-.003-.003-.007-.006-.01-.009l-6.683-6.683c-3.905-3.904-10.237-3.904-14.143 0-2.474 2.475-3.375 5.923-2.714 9.111-21.907-10.038-48.714-6.056-66.727 11.956-15.944 15.945-20.896 38.78-14.862 59.009-30.379-43.285-28.155-102.635 6.67-143.568l13.99 13.99c3.905 3.904 10.237 3.904 14.142 0 3.905-3.905 3.905-10.237 0-14.143l-77.811-77.81c-28.853-28.851-75.799-28.851-104.651 0-13.977 13.977-21.674 32.56-21.674 52.326 0 19.767 7.697 38.35 21.674 52.326l318.675 318.675c5.946 5.945 13.756 8.918 21.566 8.918 7.811 0 15.621-2.973 21.567-8.918l61.518-61.518c11.892-11.892 11.892-31.241 0-43.134zm118.516 146.801-76.367 76.368-35.374-35.375c30.024-34.681 39.894-80.883 29.598-123.137zm-107.836-96.115c17.331 40.19 11.297 88.119-18.092 122.921l-61.78-61.78c6.702 2.503 13.765 3.771 20.833 3.771 15.194 0 30.388-5.784 41.955-17.35 12.99-12.993 18.683-30.559 17.084-47.562zm-86.853-22.208c7.669-7.669 17.739-11.502 27.812-11.502 10.071 0 20.145 3.835 27.812 11.502 15.336 15.336 15.336 40.29 0 55.626-15.336 15.335-40.29 15.335-55.625 0-15.335-15.336-15.335-40.29.001-55.626zm-162.522-86.154c-10.199-10.199-15.816-23.76-15.816-38.184s5.617-27.984 15.816-38.184c12.712-12.711 30.234-17.734 46.759-15.097-18.167 24.266-27.774 53.756-27.274 84.499.168 10.331 1.479 20.482 3.859 30.31zm73.89 73.891c-43.383-43.384-46.126-111.542-7.424-158.064 3.522 2.165 6.853 4.758 9.901 7.806l49.641 49.641c-30.116 34.565-40.058 80.711-29.815 122.921zm321.152 183.265-61.518 61.518c-4.094 4.093-10.756 4.095-14.85 0l-23.688-23.688 76.367-76.368 23.688 23.688c4.095 4.095 4.095 10.757.001 14.85z"/><path id="XMLID_750_" d="m471.081 151.852c-3.754-2.186-8.491-1.701-11.722 1.203s-4.217 7.562-2.439 11.527c3.451 7.696 5.2 15.838 5.2 24.197 0 15.766-6.12 30.594-17.237 41.766-.024.024-.049.048-.073.072-15.569 15.569-24.143 36.27-24.143 58.287 0 29.238 15.679 56.543 40.919 71.257 1.567.914 3.305 1.361 5.034 1.361 2.412 0 4.806-.871 6.688-2.564 3.231-2.904 4.217-7.562 2.44-11.527-3.45-7.696-5.2-15.837-5.2-24.197 0-15.804 6.15-30.665 17.317-41.847.019-.019.038-.038.057-.057 15.527-15.559 24.078-36.233 24.078-58.22 0-29.241-15.679-56.544-40.919-71.258zm2.634 115.401c-.023.023-.046.047-.07.07-14.743 14.798-22.93 34.397-23.095 55.265-6.337-9.912-9.883-21.578-9.883-33.684 0-16.637 6.464-32.281 18.204-44.063.028-.027.055-.055.083-.082 14.787-14.806 22.998-34.434 23.164-55.333 6.336 9.911 9.883 21.579 9.883 33.684-.001 16.675-6.495 32.352-18.286 44.143z"/><path id="XMLID_753_" d="m392.835 209.677c1.567.913 3.305 1.36 5.034 1.36 2.412 0 4.806-.871 6.688-2.564 3.231-2.904 4.217-7.563 2.439-11.528-3.45-7.694-5.199-15.835-5.199-24.196 0-15.803 6.15-30.664 17.317-41.846.001-.001.002-.002.003-.003 15.561-15.567 24.132-36.264 24.132-58.276 0-29.239-15.679-56.543-40.919-71.257-3.753-2.187-8.49-1.701-11.722 1.203-3.231 2.904-4.217 7.562-2.439 11.527 3.45 7.696 5.2 15.837 5.2 24.197 0 15.803-6.15 30.664-17.317 41.846-.001.001-.002.002-.003.003-15.561 15.567-24.132 36.265-24.132 58.276-.002 29.24 15.678 56.544 40.918 71.258zm-2.634-115.401c.001-.001.001-.001.001-.002.002-.002.004-.003.005-.005.002-.002.003-.004.005-.006 14.78-14.805 22.987-34.428 23.153-55.321 6.337 9.911 9.883 21.577 9.883 33.683 0 16.675-6.492 32.351-18.282 44.142l-.003.003c0 .001-.001.001-.001.002-.002.002-.003.004-.005.005-.001.002-.003.004-.005.006-14.78 14.805-22.987 34.428-23.153 55.321-6.337-9.911-9.883-21.577-9.883-33.683-.001-16.677 6.493-32.354 18.285-44.145z"/><path id="XMLID_754_" d="m228.89 206.457c2.63 0 5.21-1.07 7.07-2.931 1.86-1.859 2.93-4.439 2.93-7.08 0-2.63-1.07-5.21-2.93-7.069-1.86-1.86-4.44-2.92-7.07-2.92s-5.21 1.06-7.07 2.92c-1.86 1.859-2.93 4.439-2.93 7.069 0 2.641 1.07 5.21 2.93 7.08 1.86 1.861 4.44 2.931 7.07 2.931z"/></g></g></svg>