<svg id="Capa_1" enable-background="new 0 0 512 512" height="512" viewBox="0 0 512 512" width="512" xmlns="http://www.w3.org/2000/svg"><g id="XMLID_1167_"><path id="XMLID_1166_" d="m360.998 216.471c8.43-4.122 17.906-6.435 27.922-6.435 35.152 0 63.648 28.496 63.648 63.648s-28.496 63.648-63.648 63.648c-9.886 0-19.246-2.254-27.594-6.276l-9.488 42.047c11.543 4.307 24.038 6.662 37.082 6.662 58.586 0 106.08-47.494 106.08-106.08 0-58.587-47.494-106.08-106.08-106.08-9.663 0-19.024 1.292-27.921 3.713z" fill="#99c3ff"/><path id="XMLID_1165_" d="m237.116 448h-76.231c-68.42 0-123.885-55.465-123.885-123.884v-172.116h324v172.116c0 68.419-55.465 123.884-123.884 123.884z" fill="#dfecff"/><path id="XMLID_1173_" d="m347 502h-276c-29.823 0-54-24.177-54-54h384c0 29.824-24.176 54-54 54z" fill="#99c3ff"/><g id="XMLID_386_"><path id="XMLID_387_" d="m191.929 100.929c-3.905 3.905-3.905 10.237 0 14.143 1.953 1.953 4.512 2.929 7.071 2.929s5.119-.976 7.071-2.929c17.408-17.409 17.408-45.734 0-63.143-9.61-9.61-9.61-25.247 0-34.857 3.905-3.905 3.905-10.237 0-14.143-3.905-3.905-10.237-3.905-14.143 0-17.408 17.409-17.408 45.734 0 63.143 9.611 9.61 9.611 25.247.001 34.857z"/><path id="XMLID_398_" d="m136.075 90.917c0 3.782-1.473 7.338-4.147 10.012-3.905 3.905-3.905 10.237 0 14.143 1.953 1.953 4.512 2.929 7.071 2.929s5.119-.976 7.071-2.929c6.452-6.452 10.005-15.03 10.005-24.155s-3.553-17.703-10.005-24.154c-5.521-5.521-5.521-14.504 0-20.024 3.905-3.905 3.905-10.237 0-14.143-3.905-3.904-10.237-3.904-14.143 0-13.319 13.319-13.319 34.991 0 48.31 2.675 2.673 4.148 6.229 4.148 10.011z"/><path id="XMLID_399_" d="m256.078 90.917c0 3.782-1.473 7.338-4.147 10.012-3.905 3.905-3.905 10.237 0 14.143 1.953 1.953 4.512 2.929 7.071 2.929s5.119-.976 7.071-2.929c6.452-6.452 10.005-15.03 10.005-24.155s-3.553-17.703-10.005-24.154c-5.521-5.521-5.521-14.504 0-20.024 3.905-3.905 3.905-10.237 0-14.143-3.905-3.904-10.237-3.904-14.143 0-13.319 13.319-13.319 34.991.001 48.31 2.674 2.673 4.147 6.229 4.147 10.011z"/><path id="XMLID_947_" d="m356.283 385.106c10.557 3.09 21.499 4.658 32.637 4.658 64.007 0 116.08-52.073 116.08-116.08s-52.073-116.08-116.08-116.08c-6.02 0-12.011.476-17.92 1.392v-6.996c0-5.523-4.477-10-10-10h-117c-5.523 0-10 4.477-10 10s4.477 10 10 10h107v162.116c0 62.796-51.088 113.884-113.884 113.884h-76.231c-62.796 0-113.885-51.088-113.885-113.884v-162.116h107c5.523 0 10-4.477 10-10s-4.477-10-10-10h-117c-5.523 0-10 4.477-10 10v172.116c0 48.05 25.448 90.261 63.569 113.884h-73.569c-5.523 0-10 4.477-10 10 0 35.29 28.71 64 64 64h276c35.29 0 64-28.71 64-64 0-5.523-4.477-10-10-10h-93.569c20.704-12.83 37.672-31.138 48.852-52.894zm14.717-162.012c5.719-2.032 11.723-3.059 17.92-3.059 29.582 0 53.648 24.066 53.648 53.648 0 29.581-24.066 53.648-53.648 53.648-6.196 0-12.201-1.033-17.922-3.066 0-.05.002-.099.002-.149zm17.92-45.491c52.978 0 96.08 43.102 96.08 96.08s-43.102 96.08-96.08 96.08c-8.451 0-16.759-1.096-24.807-3.242 2.353-7.028 4.139-14.312 5.301-21.801 6.304 1.73 12.826 2.61 19.506 2.61 40.609 0 73.648-33.038 73.648-73.648s-33.039-73.648-73.648-73.648c-6.123 0-12.111.739-17.92 2.193v-22.945c5.882-1.107 11.881-1.679 17.92-1.679zm.934 280.397c-4.539 19.46-22.031 34-42.854 34h-276c-20.823 0-38.315-14.54-42.854-34z"/><path id="XMLID_972_" d="m199 142c-2.63 0-5.21 1.07-7.07 2.93s-2.93 4.44-2.93 7.07 1.07 5.21 2.93 7.07 4.44 2.93 7.07 2.93 5.21-1.07 7.07-2.93 2.93-4.44 2.93-7.07-1.07-5.21-2.93-7.07-4.44-2.93-7.07-2.93z"/></g></g></svg>