<svg id="Capa_1" enable-background="new 0 0 512 512" height="512" viewBox="0 0 512 512" width="512" xmlns="http://www.w3.org/2000/svg"><g id="XMLID_1520_"><path id="XMLID_1626_" d="m462 440.031h-412c-22.091 0-40-17.909-40-40v-288.062c0-22.091 17.909-40 40-40h412c22.091 0 40 17.909 40 40v288.062c0 22.092-17.909 40-40 40z" fill="#dfedff"/><path id="XMLID_1591_" d="m54 220.031h160v176h-160z" fill="#a0c8ff"/><path id="XMLID_1590_" d="m162 300.031v-10.75c0-16.154-13.096-29.25-29.25-29.25s-29.25 13.096-29.25 29.25v10.75z" fill="#c68a65"/><path id="XMLID_1589_" d="m146.333 340.031h-27.167c-30.928 0-56 25.072-56 56h139.167c0-30.928-25.072-56-56-56z" fill="#c68a65"/><path id="XMLID_1588_" d="m103.5 300.031v10.75c0 16.154 13.096 29.25 29.25 29.25s29.25-13.095 29.25-29.25v-10.75z" fill="#ffd0c7"/><path id="XMLID_2078_" d="m54 115.969h404v48h-404z" fill="#ff7b79"/><g id="XMLID_567_"><path id="XMLID_662_" d="m462 61.969h-412c-27.57 0-50 22.43-50 50v288.062c0 27.57 22.43 50 50 50h412c27.57 0 50-22.43 50-50v-288.062c0-27.571-22.43-50-50-50zm30 338.062c0 16.542-13.458 30-30 30h-412c-16.542 0-30-13.458-30-30v-288.062c0-16.542 13.458-30 30-30h412c16.542 0 30 13.458 30 30z"/><path id="XMLID_666_" d="m458 105.969h-156.936c-5.523 0-10 4.478-10 10s4.477 10 10 10h146.936v28h-384v-28h147.064c5.523 0 10-4.478 10-10s-4.477-10-10-10h-157.064c-5.523 0-10 4.478-10 10v48c0 5.522 4.477 10 10 10h404c5.522 0 10-4.478 10-10v-48c0-5.523-4.478-10-10-10z"/><path id="XMLID_682_" d="m214 210.031h-160c-5.523 0-10 4.477-10 10v176c0 5.522 4.477 10 10 10h160c5.523 0 10-4.478 10-10v-176c0-5.522-4.477-10-10-10zm-10 20v133.948c-8.297-14.868-22.17-26.208-38.776-31.179 4.274-6.283 6.776-13.864 6.776-22.019v-1.035c4.395-1.053 7.667-4.997 7.667-9.715 0-4.736-3.297-8.694-7.718-9.728.034-.336.051-.677.051-1.022 0-21.643-17.607-39.25-39.25-39.25s-39.25 17.607-39.25 39.25c0 .345.018.686.051 1.022-4.421 1.034-7.718 4.992-7.718 9.728 0 4.718 3.271 8.662 7.666 9.715v1.035c0 8.155 2.502 15.736 6.776 22.019-15.037 4.5-27.831 14.225-36.276 27.062v-129.831zm-90.538 60c.018-.249.038-.497.038-.75 0-10.614 8.636-19.25 19.25-19.25s19.25 8.636 19.25 19.25c0 .253.019.501.038.75zm.038 20h38.5v.75c0 10.614-8.636 19.25-19.25 19.25s-19.25-8.636-19.25-19.25zm-39.239 76c4.579-20.571 22.975-36 44.905-36h3.584v5.938c0 5.522 4.477 10 10 10s10-4.478 10-10v-5.938h3.583c21.931 0 40.327 15.429 44.905 36z"/><path id="XMLID_686_" d="m315.5 210.031h-53.5c-5.523 0-10 4.477-10 10 0 5.522 4.477 10 10 10h53.5c5.522 0 10-4.478 10-10s-4.478-10-10-10z"/><path id="XMLID_687_" d="m315.5 264.031h-53.5c-5.523 0-10 4.478-10 10s4.477 10 10 10h53.5c5.522 0 10-4.478 10-10s-4.478-10-10-10z"/><path id="XMLID_688_" d="m315.5 318.031h-53.5c-5.523 0-10 4.478-10 10s4.477 10 10 10h53.5c5.522 0 10-4.478 10-10s-4.478-10-10-10z"/><path id="XMLID_689_" d="m315.5 372.031h-53.5c-5.523 0-10 4.478-10 10s4.477 10 10 10h53.5c5.522 0 10-4.478 10-10s-4.478-10-10-10z"/><path id="XMLID_690_" d="m458 210.031h-99c-5.522 0-10 4.477-10 10 0 5.522 4.478 10 10 10h99c5.522 0 10-4.478 10-10s-4.478-10-10-10z"/><path id="XMLID_1118_" d="m458 264.031h-99c-5.522 0-10 4.478-10 10s4.478 10 10 10h99c5.522 0 10-4.478 10-10s-4.478-10-10-10z"/><path id="XMLID_1133_" d="m458 318.031h-99c-5.522 0-10 4.478-10 10s4.478 10 10 10h99c5.522 0 10-4.478 10-10s-4.478-10-10-10z"/><path id="XMLID_1134_" d="m458 372.031h-99c-5.522 0-10 4.478-10 10s4.478 10 10 10h99c5.522 0 10-4.478 10-10s-4.478-10-10-10z"/><path id="XMLID_1194_" d="m256.06 126.03c2.629 0 5.209-1.061 7.07-2.931 1.87-1.859 2.93-4.439 2.93-7.069 0-2.631-1.06-5.211-2.93-7.07-1.86-1.86-4.44-2.93-7.07-2.93s-5.21 1.069-7.07 2.93c-1.86 1.859-2.93 4.439-2.93 7.07 0 2.63 1.07 5.21 2.93 7.069 1.87 1.871 4.44 2.931 7.07 2.931z"/></g></g></svg>