<svg id="Capa_1" enable-background="new 0 0 512 512" height="512" viewBox="0 0 512 512" width="512" xmlns="http://www.w3.org/2000/svg"><g id="XMLID_1701_"><path id="XMLID_2128_" d="m155.711 482.002c-40.317 0-73-32.683-73-73 0-40.317 32.683-73 73-73h28.871c35.965 0 61.627 34.861 50.941 69.202l-7.284 23.408c-9.881 31.756-39.271 53.39-72.528 53.39z" fill="#89a7bc"/><path id="XMLID_2127_" d="m356.289 482.002c40.317 0 73-32.683 73-73 0-40.317-32.683-73-73-73h-28.871c-35.965 0-61.627 34.861-50.941 69.202l7.284 23.408c9.881 31.756 39.271 53.39 72.528 53.39z" fill="#89a7bc"/><path id="XMLID_1696_" d="m410.351 141.587c55.895 14.677 91.649 37.153 91.649 62.348 0 44.22-110.138 80.067-246 80.067s-246-35.847-246-80.067c0-25.154 35.638-47.598 91.376-62.277z" fill="#c68a65"/><path id="XMLID_1653_" d="m366.516 49.688c-15.257-23.256-48.369-26.525-67.667-6.495-12.821 13.308-27.394 21.674-42.849 21.674s-30.028-8.366-42.849-21.674c-19.298-20.03-52.41-16.761-67.667 6.495-22.387 34.124-40.205 92.888-51.47 133.98 38.828 15.008 96.986 31.667 161.986 31.667 65.001 0 123.159-16.66 161.987-31.668-11.265-41.091-29.084-99.855-51.471-133.979z" fill="#d1a184"/><g id="XMLID_61_"><path id="XMLID_125_" d="m448 370.786h-18.069c-13.851-26.581-41.652-44.784-73.642-44.784h-28.871c-20.355 0-38.95 9.401-51.018 25.795-3.173 4.31-5.733 8.913-7.699 13.702-3.817-1.948-8.129-3.057-12.7-3.057-4.572 0-8.887 1.106-12.704 3.055-1.966-4.788-4.526-9.39-7.698-13.699-12.067-16.393-30.662-25.795-51.018-25.795h-28.871c-31.99 0-59.791 18.203-73.642 44.784h-18.068c-5.522 0-10 4.477-10 10 0 5.522 4.478 10 10 10h10.749c-1.319 5.866-2.039 11.957-2.039 18.216 0 45.767 37.233 83 83 83 37.848 0 70.832-24.28 82.077-60.418l7.284-23.409c1.863-5.985 2.817-12.076 2.903-18.119.228-4.235 3.735-7.614 8.027-7.614 4.192 0 7.642 3.223 8.013 7.32.059 6.139 1.02 12.331 2.913 18.414l7.284 23.407c11.245 36.139 44.229 60.419 82.077 60.419 45.767 0 83-37.233 83-83 0-6.259-.719-12.35-2.039-18.216h10.751c5.522 0 10-4.478 10-10 0-5.523-4.478-10.001-10-10.001zm-222.025 31.447-7.284 23.409c-8.628 27.73-33.938 46.36-62.979 46.36-14.572 0-27.994-4.987-38.679-13.325l28.37-28.37c3.905-3.905 3.905-10.237 0-14.143-3.906-3.904-10.236-3.904-14.143 0l-27.877 27.878c-6.735-10.025-10.671-22.081-10.671-35.04 0-34.738 28.262-63 63-63h28.871c5.01 0 9.86.845 14.406 2.433l-36.227 36.227c-3.905 3.905-3.905 10.237 0 14.143 1.953 1.952 4.512 2.929 7.071 2.929 2.56 0 5.118-.977 7.071-2.929l39.21-39.21c1.194 1.273 2.324 2.626 3.378 4.059 8.259 11.217 10.621 25.279 6.483 38.579zm130.314 69.769c-16.357 0-31.529-5.911-43.205-16.028l25.668-25.668c3.905-3.905 3.905-10.237 0-14.143-3.905-3.902-10.235-3.904-14.142 0l-24.495 24.495c-2.83-4.62-5.134-9.646-6.805-15.018l-7.284-23.407c-4.139-13.301-1.776-27.362 6.481-38.58 8.258-11.218 20.982-17.651 34.911-17.651h28.871c11.081 0 21.497 2.886 30.553 7.931l-30.73 30.729c-3.905 3.905-3.905 10.237 0 14.143 1.953 1.952 4.512 2.929 7.071 2.929s5.118-.977 7.071-2.929l32.4-32.4c10.32 11.224 16.634 26.185 16.634 42.598.001 34.737-28.261 62.999-62.999 62.999z"/><path id="XMLID_655_" d="m413.123 131.977c-10.255-31.672-23.079-64.657-38.245-87.774-8.989-13.702-23.533-22.437-39.903-23.965-16.263-1.528-32.056 4.32-43.326 16.017-11.9 12.351-23.894 18.612-35.649 18.612s-23.749-6.262-35.648-18.612c-11.27-11.698-27.069-17.548-43.326-16.017-16.37 1.527-30.914 10.263-39.903 23.965-15.164 23.114-27.988 56.101-38.244 87.776-.016.004-.033.006-.049.01-63.731 16.783-98.83 42.333-98.83 71.946 0 23.582 22.142 44.617 64.031 60.829 37.661 14.576 89.677 24.48 146.465 27.89.205.012.407.017.609.017 5.248 0 9.653-4.092 9.973-9.4.33-5.514-3.87-10.251-9.383-10.582-54.782-3.288-104.659-12.727-140.445-26.576-32.57-12.606-51.25-27.979-51.25-42.178 0-17.304 27.209-35.737 71.839-49.192-2.734 9.237-5.229 18.106-7.47 26.281-1.356 4.948 1.253 10.121 6.039 11.971 38.168 14.754 97.879 32.341 165.592 32.341 67.714 0 127.425-17.587 165.592-32.341 4.786-1.85 7.396-7.023 6.039-11.971-2.241-8.174-4.735-17.044-7.469-26.281 44.636 13.455 71.838 31.882 71.838 49.192 0 14.192-18.666 29.56-51.211 42.162-35.758 13.847-85.604 23.288-140.355 26.584-5.514.332-9.713 5.07-9.381 10.583.319 5.309 4.724 9.399 9.972 9.399.203 0 .406-.006.61-.018 56.759-3.417 108.743-13.325 146.376-27.898 41.862-16.21 63.989-37.238 63.989-60.812 0-29.624-35.115-55.175-98.877-71.958zm-157.123 73.358c-59.84 0-113.287-14.45-149.916-27.815 8.062-28.895 25.873-88.984 47.761-122.347 5.634-8.588 14.761-14.063 25.04-15.023 10.169-.951 20.038 2.688 27.064 9.982 15.592 16.182 32.9 24.735 50.051 24.735s34.459-8.554 50.051-24.735c7.027-7.293 16.89-10.935 27.064-9.982 10.279.959 19.406 6.435 25.04 15.023 21.892 33.369 39.7 93.453 47.761 122.347-36.628 13.365-90.074 27.815-149.916 27.815z"/><path id="XMLID_656_" d="m263.13 291.132c1.87-1.86 2.93-4.44 2.93-7.07s-1.06-5.21-2.93-7.069c-1.86-1.86-4.43-2.931-7.07-2.931-2.63 0-5.21 1.07-7.069 2.931-1.86 1.869-2.931 4.439-2.931 7.069s1.07 5.21 2.931 7.07c1.859 1.87 4.439 2.93 7.069 2.93 2.64 0 5.21-1.06 7.07-2.93z"/></g></g></svg>