<svg id="Capa_1" enable-background="new 0 0 512 512" height="512" viewBox="0 0 512 512" width="512" xmlns="http://www.w3.org/2000/svg"><g><circle id="XMLID_1479_" cx="121" cy="141" fill="#ff7b79" r="111"/><circle id="XMLID_1054_" cx="391" cy="141" fill="#80b4ff" r="111"/><path id="XMLID_192_" d="m156.644 201.527c1.511 4.005 5.316 6.472 9.357 6.472 1.173-.001 2.367-.208 3.529-.647 5.167-1.95 7.775-7.72 5.825-12.887l-42.414-112.392c-.035-.092-.071-.183-.108-.274-1.949-4.737-6.516-7.796-11.637-7.796-.004 0-.009 0-.013 0-5.127.005-9.693 3.075-11.634 7.82-.031.075-.061.15-.089.227l-42.805 112.388c-1.966 5.161.625 10.939 5.786 12.904 5.161 1.967 10.939-.625 12.904-5.786l8.208-21.55h54.969zm-55.474-41.521 19.994-52.496 19.811 52.496z"/><path id="XMLID_195_" d="m417.362 133.148c5.115-6.248 8.19-14.228 8.19-22.914 0-19.977-16.252-36.23-36.229-36.23h-33.112c-5.523 0-10 4.477-10 10v113.993c0 2.66 1.06 5.21 2.945 7.087 1.875 1.866 4.411 2.913 7.055 2.913h.044c.305-.001 30.564-.136 38.851-.136 22.433 0 40.683-18.25 40.683-40.683 0-14.222-7.341-26.755-18.427-34.03zm-28.039-39.145c8.949 0 16.229 7.281 16.229 16.23s-7.281 16.23-16.229 16.23c-2.424 0-7.008.013-12.01.031h-11.102v-32.491zm5.783 93.858c-5.245 0-19.2.053-28.895.093v-41.417c3.47-.014 7.427-.029 11.15-.043h17.746c11.405 0 20.683 9.279 20.683 20.684s-9.279 20.683-20.684 20.683z"/><path id="XMLID_197_" d="m242 141c0-66.72-54.28-121-121-121s-121 54.28-121 121c0 48.315 28.659 91.927 73.011 111.108 1.293.559 2.64.824 3.964.824 3.868 0 7.55-2.257 9.184-6.033 2.192-5.069-.14-10.956-5.21-13.148-37.025-16.012-60.949-52.419-60.949-92.751 0-55.691 45.309-101 101-101s101 45.309 101 101c0 40.289-23.889 76.681-60.86 92.711-5.067 2.197-7.393 8.086-5.197 13.153 2.197 5.067 8.085 7.392 13.153 5.197 44.288-19.204 72.904-62.797 72.904-111.061z"/><path id="XMLID_268_" d="m391 20c-66.72 0-121 54.28-121 121s54.28 121 121 121 121-54.28 121-121-54.28-121-121-121zm0 222c-55.691 0-101-45.309-101-101s45.309-101 101-101 101 45.309 101 101-45.309 101-101 101z"/><path id="XMLID_269_" d="m256 270.119c-34.009 0-61.677 27.668-61.677 61.677 0 5.523 4.477 10 10 10s10-4.477 10-10c0-22.981 18.696-41.677 41.677-41.677s41.677 18.696 41.677 41.677c0 22.98-18.696 41.677-41.677 41.677-5.523 0-10 4.477-10 10v54.043c0 5.523 4.477 10 10 10s10-4.477 10-10v-44.853c29.27-4.792 51.677-30.262 51.677-60.867 0-34.008-27.668-61.677-61.677-61.677z"/><path id="XMLID_270_" d="m256 472c-2.63 0-5.21 1.07-7.07 2.93s-2.93 4.44-2.93 7.07 1.07 5.21 2.93 7.07 4.44 2.93 7.07 2.93 5.21-1.07 7.07-2.93 2.93-4.44 2.93-7.07-1.07-5.21-2.93-7.07-4.44-2.93-7.07-2.93z"/><path id="XMLID_271_" d="m121.05 242.05c-2.63 0-5.21 1.07-7.07 2.93s-2.93 4.44-2.93 7.07c0 2.64 1.07 5.21 2.93 7.07 1.86 1.87 4.44 2.93 7.07 2.93 2.64 0 5.21-1.06 7.07-2.93 1.87-1.86 2.93-4.43 2.93-7.07 0-2.63-1.06-5.21-2.93-7.07-1.86-1.86-4.43-2.93-7.07-2.93z"/></g></svg>