<svg id="Capa_1" enable-background="new 0 0 512 512" height="512" viewBox="0 0 512 512" width="512" xmlns="http://www.w3.org/2000/svg"><g id="XMLID_1530_"><path id="XMLID_1475_" d="m10 30h492v452h-492z" fill="#dfecff"/><path id="XMLID_1506_" d="m10 30h492v72h-492z" fill="#a0c8ff"/><g id="XMLID_998_" fill="#ffcd69"><path id="XMLID_1002_" d="m384.677 163.323c-22.529-12.581-50.673-8.671-68.919 9.575l-44.387 44.387 59.344 59.344 44.387-44.387c18.246-18.246 22.156-46.39 9.575-68.919z"/><path id="XMLID_1001_" d="m181.239 428-61.239-61.239.048-14.338 143.145-143.144 75.528 75.528-143.144 143.145z"/><path id="XMLID_1910_" d="m228.405 239.113h106.814v54.151h-106.814z" transform="matrix(.707 .707 -.707 .707 270.764 -121.306)"/></g><g id="XMLID_457_"><path id="XMLID_470_" d="m502 20h-492c-5.523 0-10 4.477-10 10v452c0 5.523 4.477 10 10 10h492c5.523 0 10-4.477 10-10v-452c0-5.523-4.477-10-10-10zm-482 452v-360h191.063c5.523 0 10-4.477 10-10s-4.477-10-10-10h-191.063v-52h472v52h-190.937c-5.523 0-10 4.477-10 10s4.477 10 10 10h190.937v360z"/><path id="XMLID_481_" d="m389.553 154.592c-26.307-14.691-59.561-10.07-80.865 11.235l-37.402 37.402-1.021-1.021c-3.905-3.905-10.237-3.905-14.143 0l-143.145 143.144c-1.867 1.867-2.92 4.397-2.929 7.038l-.048 14.337c-.009 2.663 1.045 5.221 2.929 7.105l61.239 61.239c1.876 1.876 4.419 2.929 7.071 2.929h.034l14.338-.048c2.641-.009 5.171-1.062 7.038-2.929l143.144-143.144c3.905-3.905 3.905-10.237 0-14.143l-1.021-1.021 37.402-37.402c21.305-21.306 25.925-54.559 11.235-80.866-.904-1.617-2.239-2.952-3.856-3.855zm-198.132 263.374-6.053.02-55.354-55.354.02-6.053 94.868-94.868 61.386 61.386zm109.01-109.011-61.386-61.386 24.148-24.148 61.386 61.386zm67.6-83.784-37.316 37.316-45.202-45.202 37.317-37.316c14.332-14.334 36.341-17.949 54.435-9.233 8.714 18.094 5.099 40.101-9.234 54.435z"/><path id="XMLID_484_" d="m256.06 111.94c2.63 0 5.21-1.07 7.07-2.93 1.87-1.86 2.93-4.44 2.93-7.07 0-2.64-1.06-5.21-2.93-7.07-1.86-1.87-4.43-2.93-7.07-2.93-2.63 0-5.211 1.06-7.07 2.93-1.86 1.86-2.93 4.43-2.93 7.07 0 2.63 1.07 5.21 2.93 7.07 1.87 1.86 4.44 2.93 7.07 2.93z"/></g></g></svg>