<svg id="Capa_1" enable-background="new 0 0 512 512" height="512" viewBox="0 0 512 512" width="512" xmlns="http://www.w3.org/2000/svg"><g id="XMLID_1852_"><ellipse id="XMLID_1851_" cx="256" cy="255.971" fill="#fff" rx="246" ry="151.617"/><circle id="XMLID_1369_" cx="256" cy="255.971" fill="#80b6ff" r="107.618"/><circle id="XMLID_1774_" cx="256" cy="255.971" fill="#89a7bc" r="53.673"/><ellipse id="XMLID_1374_" cx="284.284" cy="227.687" fill="#fff" rx="24.09" ry="24.09" transform="matrix(.707 -.707 .707 .707 -77.734 267.707)"/><g id="XMLID_1272_"><path id="XMLID_1273_" d="m510.931 251.472c-40.969-81.325-118.875-138.649-208.4-153.341-5.444-.893-10.592 2.799-11.487 8.248-.895 5.45 2.799 10.593 8.249 11.488 81.574 13.387 152.782 64.861 191.457 138.105-46.129 87.493-135.609 141.617-234.75 141.617s-188.621-54.124-234.749-141.616c38.695-73.292 109.947-124.768 191.581-138.125 5.45-.892 9.146-6.033 8.254-11.483s-6.024-9.142-11.484-8.254c-89.584 14.657-167.541 71.989-208.533 153.361-1.426 2.83-1.426 6.168 0 8.998 23.42 46.492 59.127 85.738 103.259 113.496 45.372 28.538 97.819 43.623 151.672 43.623s106.3-15.085 151.672-43.623c44.132-27.758 79.839-67.004 103.259-113.496 1.425-2.83 1.425-6.168 0-8.998z"/><path id="XMLID_1278_" d="m138.383 255.971c0 64.855 52.763 117.618 117.617 117.618s117.617-52.763 117.617-117.618-52.763-117.618-117.617-117.618-117.617 52.764-117.617 117.618zm215.234 0c0 53.827-43.791 97.618-97.617 97.618s-97.617-43.791-97.617-97.618 43.791-97.618 97.617-97.618 97.617 43.791 97.617 97.618z"/><path id="XMLID_1283_" d="m256 192.298c-35.109 0-63.673 28.563-63.673 63.673s28.564 63.673 63.673 63.673 63.673-28.564 63.673-63.673c0-6.313-.93-12.511-2.742-18.483.934-3.106 1.443-6.395 1.443-9.801 0-18.797-15.293-34.089-34.09-34.089-3.406 0-6.694.508-9.799 1.442-5.973-1.812-12.173-2.742-18.485-2.742zm0 107.346c-24.081 0-43.673-19.591-43.673-43.673 0-23.361 18.438-42.495 41.525-43.618-2.334 4.613-3.658 9.821-3.658 15.334 0 18.797 15.293 34.09 34.09 34.09 5.514 0 10.721-1.324 15.334-3.658-1.123 23.088-20.257 41.525-43.618 41.525zm42.374-71.957c0 7.769-6.32 14.09-14.09 14.09s-14.09-6.321-14.09-14.09 6.32-14.089 14.09-14.089 14.09 6.32 14.09 14.089z"/><path id="XMLID_1285_" d="m256.06 114.421c2.641 0 5.21-1.07 7.07-2.93 1.87-1.87 2.93-4.44 2.93-7.07s-1.06-5.21-2.93-7.07c-1.86-1.87-4.43-2.94-7.07-2.94-2.63 0-5.21 1.07-7.069 2.94-1.86 1.86-2.931 4.43-2.931 7.07 0 2.63 1.07 5.21 2.931 7.07 1.859 1.86 4.439 2.93 7.069 2.93z"/></g></g></svg>