<svg id="Capa_1" enable-background="new 0 0 512 512" height="512" viewBox="0 0 512 512" width="512" xmlns="http://www.w3.org/2000/svg"><g id="XMLID_966_"><path id="XMLID_1346_" d="m64 448v54h54 276 54v-54-384-54h-54-276-54v54z" fill="#f3c9a6"/><g id="XMLID_1178_"><path id="XMLID_1189_" d="m230.902 394.793c-3.906-3.905-10.238-3.905-14.143 0-15.156 15.158-32.123 28.238-50.427 38.878-4.775 2.776-6.395 8.897-3.62 13.671 1.856 3.194 5.209 4.976 8.655 4.976 1.705 0 3.435-.437 5.016-1.356 19.798-11.509 38.141-25.649 54.518-42.028 3.907-3.905 3.907-10.236.001-14.141z"/><path id="XMLID_1203_" d="m255.658 363.543c1.637 1.009 3.449 1.49 5.239 1.49 3.355 0 6.632-1.688 8.521-4.753 25.615-41.543 39.155-89.602 39.155-138.982 0-28.99-23.585-52.574-52.574-52.574s-52.574 23.584-52.574 52.574c0 5.523 4.478 10 10 10s10-4.477 10-10c0-17.962 14.612-32.574 32.574-32.574s32.574 14.613 32.574 32.574c0 45.671-12.511 90.101-36.179 128.485-2.897 4.7-1.436 10.861 3.264 13.76z"/><path id="XMLID_1204_" d="m107.884 388.717c1.269 0 2.56-.243 3.805-.756 48.131-19.828 85.361-59.42 102.147-108.625 1.783-5.227-1.009-10.91-6.236-12.693-5.227-1.784-10.909 1.008-12.693 6.236-14.925 43.751-48.033 78.956-90.835 96.59-5.107 2.103-7.541 7.949-5.438 13.055 1.591 3.86 5.318 6.193 9.25 6.193z"/><path id="XMLID_1212_" d="m290.308 388.278c-4.463-3.253-10.717-2.273-13.972 2.191-8.845 12.134-18.761 23.717-29.472 34.428-10.111 10.112-21.01 19.524-32.393 27.974-4.435 3.292-5.36 9.556-2.068 13.99 1.963 2.643 4.98 4.04 8.037 4.04 2.071 0 4.162-.642 5.953-1.971 12.166-9.032 23.811-19.088 34.613-29.89 11.441-11.442 22.037-23.82 31.491-36.79 3.254-4.463 2.274-10.719-2.189-13.972z"/><path id="XMLID_1221_" d="m160.217 282.278c3.852 0 7.523-2.239 9.166-5.994 7.61-17.391 11.469-35.891 11.469-54.988 0-26.029 13.181-49.842 35.259-63.701 4.678-2.936 6.09-9.108 3.153-13.786s-9.11-6.089-13.786-3.153c-27.943 17.54-44.626 47.686-44.626 80.64 0 16.32-3.294 32.123-9.791 46.97-2.214 5.06.093 10.956 5.152 13.17 1.305.572 2.665.842 4.004.842z"/><path id="XMLID_1313_" d="m139.542 305.521c-3.858-3.948-10.191-4.023-14.141-.162-10.891 10.644-23.509 18.963-37.504 24.727-5.106 2.104-7.541 7.948-5.438 13.055 1.59 3.861 5.318 6.194 9.25 6.194 1.269 0 2.559-.243 3.805-.756 16.376-6.745 31.134-16.474 43.865-28.917 3.951-3.86 4.023-10.191.163-14.141z"/><path id="XMLID_1314_" d="m230.384 342.243c3-4.636 1.674-10.828-2.962-13.828-4.64-3.002-10.828-1.674-13.829 2.962-20.581 31.801-49.521 57.149-83.691 73.303-4.993 2.36-7.128 8.321-4.768 13.315 1.708 3.612 5.301 5.728 9.048 5.728 1.432 0 2.887-.309 4.267-.962 37.538-17.746 69.328-45.589 91.935-80.518z"/><path id="XMLID_1328_" d="m256 211.297c-5.523 0-10 4.477-10 10 0 24.122-4.18 47.713-12.424 70.116-1.907 5.183.748 10.931 5.932 12.838 1.139.419 2.305.618 3.452.618 4.071 0 7.897-2.506 9.386-6.549 9.06-24.622 13.654-50.536 13.654-77.023 0-5.523-4.478-10-10-10z"/><path id="XMLID_1329_" d="m325.971 411.443c-4.488-3.219-10.735-2.188-13.954 2.299-10.447 14.569-22.239 28.451-35.053 41.265l-.964.96c-3.913 3.897-3.928 10.228-.031 14.142 1.954 1.963 4.52 2.945 7.087 2.945 2.552 0 5.104-.971 7.056-2.913l1-.997c13.576-13.577 26.079-28.295 37.159-43.747 3.217-4.488 2.188-10.735-2.3-13.954z"/><path id="XMLID_1330_" d="m118.277 221.297c0 26.62-14.356 51.497-37.467 64.921-4.776 2.774-6.398 8.894-3.625 13.67 1.856 3.195 5.21 4.979 8.657 4.979 1.704 0 3.433-.437 5.013-1.355 29.251-16.991 47.422-48.494 47.422-82.215 0-64.913 52.811-117.723 117.723-117.723 46.362 0 88.562 27.352 107.51 69.683 2.256 5.041 8.172 7.297 13.212 5.042 5.041-2.256 7.299-8.172 5.042-13.213-22.163-49.517-71.529-81.512-125.764-81.512-75.94 0-137.723 61.782-137.723 137.723z"/><path id="XMLID_1360_" d="m360.562 99.795c35.42 30.512 55.734 74.797 55.734 121.502 0 5.523 4.478 10 10 10s10-4.477 10-10c0-52.532-22.847-102.34-62.682-136.655-4.185-3.605-10.498-3.133-14.103 1.05-3.603 4.184-3.133 10.498 1.051 14.103z"/><path id="XMLID_1361_" d="m130.542 105.707c1.962 2.033 4.577 3.055 7.195 3.055 2.5 0 5.004-.932 6.944-2.805 30.032-28.991 69.565-44.957 111.319-44.957 9.682 0 19.377.869 28.818 2.582 5.427.98 10.639-2.62 11.625-8.054.985-5.434-2.62-10.639-8.055-11.625-10.616-1.926-21.513-2.903-32.388-2.903-46.963 0-91.43 17.958-125.209 50.567-3.974 3.836-4.085 10.166-.249 14.14z"/><path id="XMLID_1391_" d="m85.703 231.297c5.522 0 10-4.477 10-10 0-31.666 9.217-62.284 26.653-88.546 3.055-4.601 1.802-10.807-2.8-13.862-4.599-3.054-10.806-1.801-13.862 2.8-19.62 29.551-29.991 63.995-29.991 99.608 0 5.523 4.478 10 10 10z"/><path id="XMLID_1392_" d="m426.297 253.871c-17.962 0-32.574-14.613-32.574-32.574 0-5.523-4.478-10-10-10s-10 4.477-10 10c0 28.99 23.585 52.574 52.574 52.574 5.522 0 10-4.477 10-10s-4.478-10-10-10z"/><path id="XMLID_1395_" d="m426.297 296.445c-41.436 0-75.148-33.711-75.148-75.148 0-52.465-42.684-95.149-95.148-95.149-5.523 0-10 4.477-10 10s4.477 10 10 10c41.436 0 75.148 33.711 75.148 75.148 0 52.465 42.684 95.148 95.148 95.148 5.522 0 10-4.477 10-10 0-5.522-4.478-9.999-10-9.999z"/><path id="XMLID_1396_" d="m426.297 339.019c-34.329 0-66.872-14.94-89.282-40.99-3.603-4.186-9.916-4.662-14.102-1.059-4.187 3.602-4.661 9.915-1.06 14.103 26.215 30.471 64.283 47.946 104.444 47.946 5.522 0 10-4.477 10-10s-4.478-10-10-10z"/><path id="XMLID_1398_" d="m306.234 355.805c33.058 29.527 75.697 45.788 120.062 45.788 5.522 0 10-4.477 10-10s-4.478-10-10-10c-39.444 0-77.352-14.456-106.74-40.704-4.119-3.679-10.44-3.322-14.119.796-3.679 4.12-3.322 10.441.797 14.12z"/><path id="XMLID_1399_" d="m64 74c5.522 0 10-4.477 10-10v-44h44c5.522 0 10-4.477 10-10s-4.478-10-10-10h-54c-5.522 0-10 4.477-10 10v54c0 5.523 4.478 10 10 10z"/><path id="XMLID_1404_" d="m448 0h-54c-5.522 0-10 4.477-10 10s4.478 10 10 10h44v44c0 5.523 4.478 10 10 10s10-4.477 10-10v-54c0-5.523-4.478-10-10-10z"/><path id="XMLID_1534_" d="m118 492h-44v-44c0-5.523-4.478-10-10-10s-10 4.477-10 10v54c0 5.523 4.478 10 10 10h54c5.522 0 10-4.477 10-10s-4.478-10-10-10z"/><path id="XMLID_1548_" d="m448 438c-5.522 0-10 4.477-10 10v44h-44c-5.522 0-10 4.477-10 10s4.478 10 10 10h54c5.522 0 10-4.477 10-10v-54c0-5.523-4.478-10-10-10z"/><path id="XMLID_1549_" d="m329.42 77.6c2.64 0 5.21-1.07 7.07-2.93 1.869-1.86 2.93-4.44 2.93-7.07s-1.06-5.21-2.93-7.07c-1.86-1.86-4.44-2.93-7.07-2.93s-5.21 1.07-7.07 2.93c-1.859 1.86-2.93 4.44-2.93 7.07s1.07 5.21 2.93 7.07 4.44 2.93 7.07 2.93z"/></g></g></svg>