<svg id="Capa_1" enable-background="new 0 0 511.968 511.968" height="512" viewBox="0 0 511.968 511.968" width="512" xmlns="http://www.w3.org/2000/svg"><g id="XMLID_74_"><g id="XMLID_1109_" fill="#a7bcce"><path id="XMLID_1112_" d="m367.907 167.817c-35.015-5.836-67.093 20.354-68.653 55.818-1.264 28.74 3.383 57.397 13.616 84.213 4.971 13.026 7.911 30.122 8.732 45.108.258 4.705 4.116 8.4 8.828 8.4h78.968c4.189 0 7.833-2.935 8.651-7.043 1.57-7.886 4.287-15.529 8.096-22.676 11.656-21.87 18.712-45.895 20.734-70.594.001-46.202-33.4-85.631-78.972-93.226z"/><path id="XMLID_1110_" d="m321.84 414.633v40.031c0 26.125 21.179 47.304 47.304 47.304 26.125 0 47.304-21.179 47.304-47.304v-40.031c0-5.124-4.154-9.278-9.278-9.278h-76.052c-5.124.001-9.278 4.155-9.278 9.278z"/></g><g id="XMLID_26_" fill="#a7bcce"><path id="XMLID_1108_" d="m120.379 15.283c32.312-14.7 70.075 2.296 80.76 36.147 8.66 27.433 11.588 56.317 8.644 84.867-1.43 13.868.155 31.143 3.24 45.831.969 4.611-1.802 9.179-6.353 10.399l-76.277 20.438c-4.047 1.084-8.326-.807-10.179-4.564-3.558-7.211-8.16-13.89-13.69-19.808-16.919-18.108-29.953-39.488-38.299-62.822-11.958-44.626 10.101-91.356 52.154-110.488z"/><path id="XMLID_227_" d="m228.757 241.767 10.361 38.667c6.762 25.235-8.214 51.173-33.449 57.935-25.235 6.762-51.173-8.214-57.935-33.449l-10.361-38.667c-1.326-4.949 1.611-10.037 6.56-11.363l73.461-19.684c4.949-1.325 10.037 1.612 11.363 6.561z"/></g><g id="XMLID_27_"><g id="XMLID_29_"><path id="XMLID_30_" d="m369.55 157.953c-19.444-3.244-39.381 2.016-54.696 14.423-15.391 12.467-24.719 30.99-25.591 50.819-1.33 30.251 3.469 59.931 14.264 88.218 4.229 11.082 7.253 26.816 8.09 42.09.549 10.011 8.812 17.853 18.813 17.853h78.968c8.954 0 16.717-6.346 18.459-15.09 1.388-6.969 3.781-13.673 7.114-19.926 12.369-23.208 19.746-48.676 21.892-74.89 0-24.709-8.779-49.108-24.75-67.961-15.971-18.854-38.19-31.474-62.563-35.536zm-42.107 29.964c10.869-8.804 25.016-12.536 38.82-10.236 20.097 3.35 37.478 13.52 49.972 27.909h-102.499c3.128-6.796 7.778-12.871 13.707-17.673zm89.878 139.016c-4.094 7.681-7.077 15.893-8.873 24.423h-76.921c-.593-9.805-1.956-19.597-3.93-28.589h91.869c-.697 1.395-1.409 2.785-2.145 4.166zm1.644-52.755h16.231c-1.601 9.753-4.03 19.299-7.278 28.589h-106.262c-3.494-9.376-6.272-18.917-8.315-28.589h15.624c5.523 0 10-4.477 10-10s-4.477-10-10-10h-16.127c-.912 0-1.792.133-2.631.361-1.035-9.561-1.366-19.223-1.011-28.95h119.944c4.065 8.836 6.641 18.474 7.449 28.588h-17.624c-5.522 0-10 4.477-10 10 0 5.524 4.478 10.001 10 10.001z"/><path id="XMLID_38_" d="m456.864 261.45c0 .272.022-.272 0 0z"/></g><path id="XMLID_57_" d="m407.17 395.356h-76.053c-10.63 0-19.277 8.648-19.277 19.277v40.031c0 31.597 25.706 57.304 57.304 57.304s57.304-25.706 57.304-57.304v-40.031c0-10.629-8.648-19.277-19.278-19.277zm-.722 20v28.306h-74.608v-28.306zm-37.304 76.612c-17.467 0-32.163-12.07-36.2-28.306h72.4c-4.037 16.236-18.733 28.306-36.2 28.306z"/><g id="XMLID_28_"><path id="XMLID_33_" d="m58.687 128.75c-.091-.257.071.262 0 0z"/><path id="XMLID_37_" d="m222.81 180.073c-3.145-14.971-4.296-30.952-3.079-42.749 3.106-30.118.06-60.03-9.056-88.903-5.975-18.928-19.778-34.405-37.871-42.464-18.005-8.02-38.622-7.937-56.566.225-22.491 10.231-40.686 28.172-51.234 50.516-10.547 22.345-12.712 48.185-6.317 72.052 8.856 24.763 22.574 47.453 40.53 66.672 4.838 5.178 8.885 11.034 12.029 17.405 3.207 6.502 9.849 10.441 16.869 10.44 1.614 0 3.249-.209 4.865-.642l76.276-20.438c9.662-2.587 15.615-12.301 13.554-22.114zm-98.29-155.687c12.734-5.793 27.367-5.853 40.146-.16 6.969 3.104 13.033 7.769 17.813 13.524l-99.005 26.528c8.345-17.133 22.501-31.455 41.046-39.892zm-48.335 62.55 115.856-31.043c2.861 9.304 5.042 18.722 6.517 28.225-.87-.004-1.754.096-2.635.332l-119.534 32.029c-1.838-9.979-1.844-19.956-.204-29.543zm21.155 74.232c-5.542-8.134-10.358-16.725-14.429-25.731l117.703-31.539c.529 9.871.315 19.806-.633 29.767zm31.383 41.893c-3.943-7.774-8.95-14.934-14.893-21.294-1.068-1.143-2.116-2.301-3.15-3.468l88.738-23.777c.421 9.196 1.639 19.007 3.605 28.632z"/></g><path id="XMLID_69_" d="m238.416 239.179c-1.333-4.974-4.522-9.131-8.982-11.706s-9.655-3.258-14.628-1.926l-73.461 19.684c-4.974 1.333-9.131 4.522-11.706 8.982-2.574 4.46-3.259 9.654-1.926 14.628l10.361 38.667c6.853 25.573 30.064 42.479 55.364 42.479 4.896 0 9.871-.633 14.818-1.959 30.52-8.178 48.697-39.662 40.52-70.182zm-19.131 5.874 7.326 27.342-72.065 19.31-7.326-27.342zm6.447 66.276c-4.982 8.629-13.026 14.802-22.651 17.381-9.624 2.581-19.677 1.255-28.307-3.727-5.968-3.446-10.758-8.357-14-14.242l69.962-18.746c.135 6.717-1.558 13.366-5.004 19.334z"/><path id="XMLID_71_" d="m373.966 254.178c-2.631 0-5.211 1.07-7.07 2.93-1.86 1.86-2.93 4.44-2.93 7.07s1.069 5.21 2.93 7.07c1.859 1.86 4.439 2.93 7.07 2.93 2.63 0 5.21-1.07 7.069-2.93 1.86-1.86 2.931-4.44 2.931-7.07s-1.07-5.21-2.931-7.07c-1.859-1.86-4.439-2.93-7.069-2.93z"/></g></g></svg>