<svg id="Capa_1" enable-background="new 0 0 512 512" height="512" viewBox="0 0 512 512" width="512" xmlns="http://www.w3.org/2000/svg"><g id="XMLID_1347_"><g id="XMLID_2028_"><path id="XMLID_2030_" d="m409.126 371.09 30.89-30.89c22.491-22.491 34.878-52.395 34.878-84.202s-12.387-61.711-34.878-84.202l-86.708-86.708c-14.18-14.181-21.99-33.034-21.99-53.088 0-12.15-9.85-22-22-22s-22 9.851-22 22c.001 31.807 12.387 61.71 34.878 84.201l86.708 86.708c14.181 14.181 21.99 33.035 21.99 53.089 0 20.055-7.81 38.909-21.99 53.089l-30.891 30.891-31.113 31.113-24.705 24.705c-22.492 22.492-34.878 52.397-34.877 84.204 0 12.15 9.85 22 22.001 22s21.999-9.851 21.999-22c0-20.056 7.81-38.911 21.99-53.092l24.705-24.705z" fill="#ff7b79"/></g><path id="XMLID_1975_" d="m147.106 138h-92v318c0 25.405 20.595 46 46 46 25.405 0 46-20.595 46-46z" fill="#ff7b79"/><path id="XMLID_2029_" d="m55.106 138h92v118.127h-92z" fill="#dfedff"/><path id="XMLID_1934_" d="m37.106 10h128v128h-128z" fill="#ffcd69"/><g id="XMLID_1327_" fill="#80b4ff"><path id="XMLID_3627_" d="m377.194 172.838-30.072 30.071c-29.273 29.273-29.273 76.905 0 106.179l86.708 86.708c22.492 22.491 34.878 52.396 34.878 84.203 0 12.15-9.85 22-22 22s-22-9.85-22-22c0-20.055-7.81-38.909-21.99-53.09l-86.708-86.708c-46.43-46.43-46.43-121.976 0-168.405l29.571-29.571z"/><path id="XMLID_1225_" d="m378.237 109.569 24.481-24.481c14.18-14.18 21.99-33.033 21.99-53.087 0-12.149 9.851-22 22-22h.001c12.15 0 21.999 9.851 21.999 22 0 31.808-12.387 61.71-34.878 84.2l-23.98 23.98z"/></g><g id="XMLID_552_"><path id="XMLID_640_" d="m165.106 0h-128c-5.523 0-10 4.477-10 10v128c0 5.523 4.477 10 10 10h8v308c0 30.879 25.121 56 56 56 30.878 0 56-25.121 56-56v-45.333c0-5.522-4.477-10-10-10s-10 4.478-10 10v45.333c0 19.851-16.15 36-36 36-19.851 0-36-16.149-36-36v-189.873h72v54.541c0 5.522 4.477 10 10 10s10-4.478 10-10v-172.668h8c5.523 0 10-4.477 10-10v-128c0-5.523-4.477-10-10-10zm-10 128h-22.667v-108h22.667zm-65.334 0v-108h22.667v108zm-42.666-108h22.666v108h-22.666zm90 226.127h-72v-98.127h72z"/><path id="XMLID_649_" d="m423.268 371.091 23.819-23.82c24.38-24.38 37.807-56.795 37.807-91.274s-13.427-66.893-37.807-91.273l-23.819-23.819 17.633-17.633c24.38-24.379 37.807-56.793 37.807-91.271 0-17.645-14.355-32-32-32s-32 14.355-32 32c0 4.417-.442 8.766-1.296 12.999h-70.799c-.854-4.234-1.296-8.583-1.296-13 0-17.645-14.356-32-32-32-8.547 0-16.583 3.329-22.628 9.373-6.044 6.044-9.372 14.08-9.372 22.627.001 34.478 13.427 66.892 37.807 91.272l17.634 17.634-23.819 23.818c-50.328 50.329-50.328 132.219 0 182.548l23.818 23.818-17.633 17.634c-24.38 24.381-37.807 56.797-37.806 91.275 0 17.645 14.355 32 32.001 32 17.645 0 31.999-14.355 31.999-32 0-4.419.442-8.769 1.296-13.004h70.798c.854 4.234 1.296 8.585 1.296 13.003 0 17.645 14.355 32 32 32s32-14.355 32-32c0-34.479-13.427-66.895-37.807-91.274zm23.441-351.09c6.617 0 11.999 5.383 11.999 12 0 29.136-11.347 56.527-31.949 77.129l-17.633 17.633-16.97-16.97 17.633-17.634c16.069-16.068 24.919-37.433 24.919-60.158 0-6.617 5.384-12 12.001-12zm-40.968 44.999c-2.769 4.689-6.142 9.065-10.094 13.017l-17.634 17.633-17.633-17.633c-3.952-3.952-7.325-8.327-10.094-13.017zm-108.423-33c0-3.205 1.248-6.219 3.514-8.485 2.267-2.267 5.28-3.515 8.485-3.515 6.617 0 12 5.384 12 12 .001 22.725 8.851 44.09 24.919 60.159l86.708 86.708c20.603 20.602 31.949 47.995 31.949 77.131s-11.346 56.528-31.949 77.131l-23.819 23.82-16.97-16.97 23.819-23.82c16.069-16.068 24.919-37.434 24.919-60.16 0-22.725-8.85-44.091-24.919-60.16l-86.708-86.708c-20.601-20.604-31.948-47.995-31.948-77.131zm56.875 270.017c-3.661-3.661-6.777-7.662-9.381-11.89h66.426c-2.636 4.262-5.773 8.256-9.405 11.889l-23.82 23.82zm47.639-92.037c3.706 3.706 6.901 7.786 9.569 12.146h-66.749c2.636-4.324 5.806-8.411 9.542-12.146l23.82-23.82zm-65.167 32.147h82.738c.974 4.508 1.491 9.149 1.491 13.871 0 4.812-.537 9.54-1.548 14.129h-82.625c-2.035-9.213-2.053-18.78-.056-28zm-27.347 249.873c-6.617 0-12.001-5.383-12.001-12 0-29.137 11.346-56.53 31.949-77.133l17.633-17.634 16.97 16.97-17.633 17.633c-16.07 16.07-24.919 37.436-24.919 60.163.001 6.618-5.382 12.001-11.999 12.001zm40.968-45.004c2.769-4.689 6.142-9.064 10.094-13.017l17.633-17.633 17.634 17.634c3.952 3.952 7.324 8.327 10.093 13.016zm96.422 45.003c-6.617 0-12-5.383-12-12 0-22.726-8.85-44.092-24.919-60.161l-86.708-86.708c-42.531-42.53-42.531-111.732 0-154.263l23.819-23.819 16.97 16.97-23.819 23.819c-33.172 33.173-33.172 87.148 0 120.321l86.709 86.708c20.603 20.602 31.949 47.994 31.949 77.132-.001 6.618-5.384 12.001-12.001 12.001z"/><path id="XMLID_1113_" d="m147.11 355.67c-2.64 0-5.21 1.06-7.08 2.93-1.86 1.86-2.92 4.431-2.92 7.07 0 2.63 1.06 5.21 2.92 7.07 1.86 1.859 4.44 2.93 7.08 2.93 2.63 0 5.21-1.07 7.07-2.93s2.93-4.44 2.93-7.07c0-2.64-1.07-5.21-2.93-7.07-1.87-1.871-4.44-2.93-7.07-2.93z"/></g></g></svg>