<svg id="Capa_1" enable-background="new 0 0 511.953 511.953" height="512" viewBox="0 0 511.953 511.953" width="512" xmlns="http://www.w3.org/2000/svg"><g id="XMLID_773_"><path id="XMLID_424_" d="m489.688 138.704c-11.718-6.766-26.702-2.751-33.467 8.967l-52 90.067 7.167-12.413 57.5-99.593c6.766-11.718 2.75-26.702-8.967-33.468-11.718-6.765-26.702-2.751-33.468 8.967l15.875-27.496c6.765-11.718 2.751-26.702-8.968-33.468-11.718-6.765-26.702-2.75-33.468 8.968l-80.542 139.503 7.167-12.413 57.5-99.593c6.765-11.718 2.751-26.702-8.968-33.468-11.718-6.765-26.702-2.75-33.468 8.968l-81.676 141.467-9.499-40.71c-3.442-14.75-18.139-23.96-32.913-20.625-13.358 3.015-22.477 15.378-21.413 29.029 2.717 34.891 8.642 69.457 17.7 103.262l1.636 6.105-49.334 85.448 148.524 85.75 39.833-68.993c31.55-22.361 57.895-51.277 77.23-84.766l66.987-116.026c6.765-11.719 2.75-26.704-8.968-33.469z" fill="#c3d3dd"/><path id="XMLID_425_" d="m257.704 124.815c-13.531 0-24.5 10.969-24.5 24.5v-25.333c0-13.531-10.969-24.5-24.5-24.5s-24.5 10.969-24.5 24.5v-31.75c0-13.531-10.969-24.5-24.5-24.5s-24.5 10.969-24.5 24.5v31.75c0-13.531-10.969-24.5-24.5-24.5s-24.5 10.969-24.5 24.5v163.352l-28.581-30.506c-10.356-11.053-27.689-11.68-38.817-1.405-10.06 9.29-11.776 24.556-4.03 35.847 19.799 28.858 42.213 55.831 66.96 80.577l4.469 4.469-.001 98.667h171.5v-79.667c16.143-35.14 24.5-73.354 24.5-112.025v-133.976c0-13.531-10.97-24.5-24.5-24.5z" fill="#e2e7ef"/><g id="XMLID_1169_"><path id="XMLID_1174_" d="m510.763 150.993c-2.386-8.901-8.095-16.341-16.075-20.949-4.566-2.637-9.562-4.165-14.67-4.544 2.494-6.67 2.857-13.931.977-20.947-2.386-8.901-8.095-16.341-16.075-20.949-4.409-2.546-9.22-4.059-14.145-4.501l.212-.368c4.607-7.98 5.832-17.278 3.447-26.179-2.386-8.901-8.095-16.341-16.075-20.948-7.979-4.607-17.276-5.833-26.179-3.447-8.901 2.385-16.341 8.094-20.948 16.074l-.224.387c-2.794-3.981-6.477-7.431-10.959-10.019-16.475-9.512-37.615-3.848-47.128 12.628l-47.275 81.883c-6.274-8.655-16.459-14.3-27.942-14.3-5.364 0-10.445 1.23-14.978 3.424-2.743-16.299-16.955-28.757-34.023-28.757-5.176 0-10.089 1.146-14.5 3.197v-.447c0-19.023-15.477-34.5-34.5-34.5s-34.5 15.477-34.5 34.5v.447c-4.411-2.051-9.324-3.197-14.5-3.197-19.023 0-34.5 15.477-34.5 34.5v138.053l-11.284-12.044c-14.06-15.006-37.791-15.866-52.898-1.915-13.613 12.571-15.975 33.572-5.491 48.852 20.097 29.291 43.02 56.876 68.135 81.991l1.54 1.541-.001 94.524c0 2.652 1.054 5.196 2.929 7.071 1.876 1.875 4.419 2.929 7.071 2.929h171.5c5.522 0 10-4.477 10-10v-48.556l41.901 24.192c1.575.909 3.294 1.341 4.99 1.341 3.456 0 6.818-1.793 8.67-5.001l38.75-67.117c19.2-13.838 36.577-30.088 51.672-48.324 3.521-4.254 2.928-10.558-1.327-14.08-4.254-3.522-10.558-2.927-14.079 1.327-14.446 17.452-31.142 32.942-49.625 46.042-1.176.833-2.157 1.911-2.878 3.159l-34.833 60.333-43.241-24.965v-5.85c16.259-36.126 24.5-74.53 24.5-114.191v-125.536l58.038-100.525c3.998-6.923 12.883-9.305 19.808-5.308 6.902 3.985 9.29 12.827 5.346 19.742l-64.706 112.072c-2.762 4.783-1.123 10.899 3.66 13.66 4.784 2.762 10.898 1.123 13.66-3.66l80.542-139.502c3.998-6.924 12.883-9.305 19.808-5.307 3.354 1.937 5.753 5.063 6.755 8.804 1.003 3.741.488 7.649-1.448 11.003l-80.541 139.503c-2.762 4.783-1.123 10.899 3.66 13.66 4.785 2.763 10.9 1.123 13.66-3.66l64.666-112.006c1.937-3.354 5.064-5.753 8.805-6.756 3.743-1.003 7.649-.488 11.003 1.448 3.354 1.937 5.754 5.063 6.756 8.805 1.003 3.741.488 7.648-1.448 11.003l-64.668 112.005c-2.762 4.783-1.123 10.899 3.66 13.66 4.785 2.761 10.898 1.123 13.66-3.66l52.04-90.135c1.939-3.318 5.049-5.692 8.765-6.688 3.744-1.003 7.65-.488 11.003 1.448 3.355 1.937 5.754 5.064 6.756 8.805 1.003 3.741.488 7.648-1.448 11.003l-44.49 77.059c-2.762 4.783-1.123 10.899 3.66 13.66 1.575.909 3.294 1.341 4.99 1.341 3.456 0 6.817-1.793 8.67-5.001l44.49-77.059c4.607-7.98 5.832-17.277 3.447-26.178zm-238.559 132.298c0 37.493-7.936 73.78-23.587 107.851-.602 1.31-.913 2.733-.913 4.174v69.667h-151.5l.001-88.667c0-2.652-1.054-5.196-2.93-7.071l-4.469-4.469c-24.248-24.248-46.382-50.882-65.784-79.163-4.902-7.145-3.799-16.965 2.567-22.843 7.066-6.523 18.162-6.121 24.734.896l28.46 30.375c1.831 2.025 4.479 3.297 7.424 3.297 3.985 0 7.591-2.367 9.176-6.023.594-1.371.861-2.826.82-4.262v-163.07c0-7.995 6.505-14.5 14.5-14.5s14.5 6.505 14.5 14.5v129.333c0 5.523 4.478 10 10 10 5.523 0 10-4.477 10-10v-161.084c0-7.995 6.505-14.5 14.5-14.5s14.5 6.505 14.5 14.5v161.083c0 5.523 4.478 10 10 10 5.523 0 10-4.477 10-10v-129.333c0-7.995 6.505-14.5 14.5-14.5s14.5 6.505 14.5 14.5v129.333c0 5.523 4.478 10 10 10 5.523 0 10-4.477 10-10v-104c0-7.995 6.505-14.5 14.5-14.5s14.5 6.505 14.5 14.5v133.976z"/><path id="XMLID_1175_" d="m431.67 278.202c-2.64 0-5.21 1.06-7.069 2.93-1.87 1.86-2.931 4.43-2.931 7.07 0 2.63 1.06 5.21 2.931 7.07 1.859 1.86 4.43 2.93 7.069 2.93 2.63 0 5.21-1.07 7.07-2.93 1.86-1.87 2.93-4.44 2.93-7.07s-1.069-5.21-2.93-7.07c-1.86-1.87-4.44-2.93-7.07-2.93z"/></g></g></svg>