<svg id="Capa_1" enable-background="new 0 0 512 512" height="512" viewBox="0 0 512 512" width="512" xmlns="http://www.w3.org/2000/svg"><g id="XMLID_1075_"><circle id="XMLID_1062_" cx="256" cy="256" fill="#ff7b79" r="221"/><circle id="XMLID_1745_" cx="256" cy="256" fill="#fff" r="177"/><ellipse id="XMLID_1744_" cx="256" cy="256" fill="#fff" rx="110" ry="67.796"/><circle id="XMLID_1658_" cx="256" cy="256" fill="#a0c8ff" r="67"/><circle id="XMLID_1644_" cx="256" cy="256" fill="#a7bcce" r="24"/><g fill="#ff7b79"><path id="XMLID_1397_" d="m256 502c-12.15 0-22-9.85-22-22v-52c0-12.15 9.85-22 22-22 12.15 0 22 9.85 22 22v52c0 12.15-9.85 22-22 22z"/><path id="XMLID_1400_" d="m256 10c-12.15 0-22 9.85-22 22v52c0 12.15 9.85 22 22 22 12.15 0 22-9.85 22-22v-52c0-12.15-9.85-22-22-22z"/><path id="XMLID_1405_" d="m10 256c0-12.15 9.85-22 22-22h52c12.15 0 22 9.85 22 22 0 12.15-9.85 22-22 22h-52c-12.15 0-22-9.85-22-22z"/><path id="XMLID_1401_" d="m502 256c0-12.15-9.85-22-22-22h-52c-12.15 0-22 9.85-22 22 0 12.15 9.85 22 22 22h52c12.15 0 22-9.85 22-22z"/></g><g id="XMLID_309_"><path id="XMLID_1026_" d="m512 256c0-16.001-11.805-29.295-27.162-31.634-14.011-102.147-95.058-183.193-197.204-197.204-2.339-15.358-15.634-27.162-31.634-27.162-15.999 0-29.294 11.803-31.634 27.159-35.622 4.901-69.86 18.171-99.506 38.65-4.544 3.139-5.684 9.368-2.544 13.912 1.94 2.81 5.062 4.317 8.236 4.317 1.96 0 3.94-.575 5.675-1.773 26.213-18.108 56.359-30.026 87.773-34.827v24.305c-37.7 6.543-73.012 24.811-100.229 52.029-27.218 27.216-45.486 62.529-52.029 100.228h-24.325c4.307-28.501 14.269-55.357 29.706-79.968 2.936-4.678 1.521-10.85-3.156-13.785-4.681-2.935-10.851-1.52-13.785 3.157-17.254 27.504-28.57 58.786-33.007 90.96-15.364 2.334-27.175 15.631-27.175 31.636 0 16.001 11.805 29.295 27.162 31.634 14.011 102.146 95.057 183.193 197.204 197.204 2.339 15.358 15.634 27.162 31.634 27.162s29.295-11.804 31.634-27.162c102.146-14.011 183.193-95.058 197.204-197.204 15.357-2.339 27.162-15.633 27.162-31.634zm-47.422-32h-24.32c-6.543-37.699-24.811-73.012-52.028-100.229-27.218-27.217-62.53-45.485-100.23-52.028v-24.32c90.809 13.831 162.747 85.767 176.578 176.577zm-208.578-204c6.617 0 12 5.383 12 12v52c0 6.617-5.383 12-12 12s-12-5.383-12-12v-52c0-6.617 5.383-12 12-12zm-31.018 71.872c3.517 13.851 16.089 24.128 31.018 24.128s27.5-10.277 31.018-24.128c67.617 12.643 120.468 65.493 133.111 133.11-13.851 3.517-24.129 16.089-24.129 31.018s10.278 27.501 24.128 31.018c-12.643 67.617-65.493 120.467-133.111 133.11-3.517-13.851-16.088-24.128-31.017-24.128s-27.501 10.277-31.018 24.128c-67.617-12.642-120.468-65.493-133.111-133.11 13.851-3.517 24.129-16.089 24.129-31.018s-10.278-27.501-24.128-31.018c12.642-67.617 65.493-120.467 133.11-133.11zm-204.982 164.128c0-6.617 5.383-12 12-12h52c6.617 0 12 5.383 12 12s-5.383 12-12 12h-52c-6.617 0-12-5.383-12-12zm27.422 32h24.32c6.543 37.7 24.811 73.012 52.028 100.229s62.53 45.485 100.229 52.028v24.32c-90.809-13.83-162.746-85.767-176.577-176.577zm220.578 192c0 6.617-5.383 12-12 12s-12-5.383-12-12v-52c0-6.617 5.383-12 12-12s12 5.383 12 12zm20-15.423v-24.32c37.7-6.543 73.012-24.811 100.229-52.029 27.217-27.217 45.485-62.529 52.028-100.228h24.32c-13.83 90.81-85.767 162.746-176.577 176.577zm192-196.577h-4.114c-.004 0-47.886 0-47.886 0-6.617 0-12-5.383-12-12s5.383-12 12-12h52c6.617 0 12 5.383 12 12s-5.383 12-12 12z"/><path id="XMLID_1037_" d="m185.235 313.442c21.171 13.316 45.642 20.354 70.765 20.354s49.594-7.039 70.765-20.354c20.585-12.948 37.241-31.255 48.166-52.943 1.426-2.83 1.426-6.168 0-8.998-10.925-21.688-27.581-39.995-48.166-52.943-21.171-13.316-45.642-20.355-70.765-20.355s-49.594 7.039-70.765 20.355c-20.585 12.948-37.241 31.255-48.166 52.943-1.426 2.83-1.426 6.168 0 8.998 10.925 21.687 27.581 39.995 48.166 52.943zm70.765-114.442c31.43 0 57 25.57 57 57s-25.57 57-57 57-57-25.57-57-57 25.57-57 57-57zm98.678 57c-7.68 13.712-17.909 25.392-29.92 34.596 5.259-10.41 8.242-22.158 8.242-34.596s-2.983-24.186-8.242-34.596c12.011 9.204 22.24 20.884 29.92 34.596zm-167.436-34.596c-5.259 10.41-8.242 22.158-8.242 34.596s2.983 24.186 8.242 34.596c-12.011-9.204-22.24-20.885-29.92-34.596 7.68-13.712 17.909-25.392 29.92-34.596z"/><path id="XMLID_1043_" d="m256 290c18.748 0 34-15.252 34-34s-15.252-34-34-34-34 15.252-34 34 15.252 34 34 34zm0-48c7.72 0 14 6.28 14 14s-6.28 14-14 14-14-6.28-14-14 6.28-14 14-14z"/><path id="XMLID_1076_" d="m96.31 113.23c2.63 0 5.21-1.07 7.07-2.93s2.93-4.44 2.93-7.07-1.069-5.21-2.93-7.07c-1.86-1.86-4.44-2.93-7.07-2.93s-5.21 1.07-7.069 2.93c-1.86 1.86-2.931 4.44-2.931 7.07s1.07 5.21 2.931 7.07c1.859 1.86 4.439 2.93 7.069 2.93z"/></g></g></svg>