<svg id="Capa_1" enable-background="new 0 0 512.002 512.002" height="512" viewBox="0 0 512.002 512.002" width="512" xmlns="http://www.w3.org/2000/svg"><g id="XMLID_1824_"><path id="XMLID_1716_" d="m156.334 337.752h-42c-47.681 0-86.333 38.653-86.333 86.333v77.917h456v-77.917c0-47.681-38.653-86.333-86.333-86.333h-42.302z" fill="#c68a65"/><path id="XMLID_1720_" d="m300.799 277.505-44.798 224.497-44.798-224.497z" fill="#a7bcce"/><path id="XMLID_1715_" d="m214.624 502.002-65.956-118h30l-27-70.385 59.535-36.112 44.798 224.497z" fill="#d1a184"/><path id="XMLID_1718_" d="m297.378 502.002 65.956-118h-30l27-70.385-59.535-36.112-44.798 224.497z" fill="#d1a184"/><path id="XMLID_1686_" d="m382.207 106.502h-252.666c0 24.301 19.699 44 44 44h164.667c24.3 0 43.999-19.699 43.999-44z" fill="#c68a65"/><path id="XMLID_1685_" d="m351.681 106.502c-5.32-29.117-17.253-60.707-33.466-85.42-8.64-13.17-27.296-14.765-38.272-3.468-7.174 7.383-15.314 12.015-23.942 12.015s-16.768-4.632-23.942-12.015c-10.976-11.297-29.632-9.701-38.272 3.469-16.213 24.712-28.146 56.302-33.466 85.42h191.36z" fill="#d1a184"/><path id="XMLID_2992_" d="m255.874 290.002c-47.497 0-86-38.504-86-86v-53.5h172v53.5c0 47.497-38.503 86-86 86z" fill="#f3c9a6"/><g id="XMLID_1003_" fill="#89a7bc"><path id="XMLID_2665_" d="m226.648 206.502h-27.04c-16.281 0-29.48-13.199-29.48-29.48v-26.52h86v26.52c0 16.281-13.199 29.48-29.48 29.48z"/><path id="XMLID_2664_" d="m312.648 206.502h-27.04c-16.281 0-29.48-13.199-29.48-29.48v-26.52h86v26.52c0 16.281-13.199 29.48-29.48 29.48z"/></g><g id="XMLID_619_"><path id="XMLID_622_" d="m397.668 327.752h-32.299l4.048-10.553c1.732-4.516-.016-9.624-4.15-12.132l-46.765-28.366c20.423-17.618 33.372-43.674 33.372-72.699v-45.329c23.058-6.159 40.345-27.224 40.333-52.198-.003-5.511-4.489-9.973-10-9.973h-22.358c-6.349-28.931-18.257-58.016-33.272-80.903-5.794-8.832-15.166-14.462-25.713-15.446-10.491-.975-20.672 2.789-27.942 10.337-4.018 4.17-10.214 9.14-16.921 9.14s-12.903-4.97-16.92-9.139c-7.272-7.549-17.456-11.317-27.943-10.338-10.547.984-19.919 6.614-25.713 15.446-15.015 22.886-26.924 51.97-33.272 80.903h-22.613c-5.513 0-9.998 4.466-10 9.979-.01 25.064 17.148 46.195 40.334 52.265v45.256c0 29.025 12.949 55.081 33.372 72.699l-46.765 28.366c-4.135 2.508-5.882 7.616-4.15 12.132l4.048 10.553h-32.045c-34.132 0-66.033 18.332-83.255 47.842-2.784 4.77-1.174 10.894 3.597 13.677 1.585.925 3.318 1.365 5.03 1.365 3.439-.001 6.788-1.776 8.646-4.962 13.651-23.391 38.934-37.922 65.981-37.922h39.717l10.07 26.25h-15.203c-2.515 0-5.008.82-6.879 2.501-3.622 3.256-4.332 8.386-2.1 12.378l57.639 103.121h-159.576v-22.605c0-5.012-3.555-9.492-8.516-10.205-6.182-.889-11.484 3.883-11.484 9.893v32.917c0 5.523 4.477 10 10 10h456c5.523 0 10-4.477 10-10v-77.917c0-53.203-43.13-96.333-96.333-96.333zm-73.925 52.668c-1.621 4.23-.238 9.184 3.808 11.929 1.679 1.139 3.706 1.653 5.736 1.653h12.747l-54.776 98h-23.318l39.62-198.547 40.192 24.38zm-77.615-203.398c0 10.759-8.722 19.48-19.48 19.48h-27.039c-10.759 0-19.48-8.722-19.48-19.48v-16.52h66v16.52zm20-16.52h65.746v19.509c-1.446 9.324-9.504 16.491-19.227 16.491h-27.039c-10.759 0-19.48-8.722-19.48-19.48zm-63.98-133.932c2.439-3.717 6.393-6.087 10.849-6.503 4.4-.409 8.654 1.156 11.682 4.3 9.62 9.985 20.452 15.263 31.323 15.263s21.703-5.277 31.324-15.264c3.026-3.142 7.276-4.71 11.681-4.299 4.456.416 8.41 2.786 10.849 6.503 12.993 19.805 23.47 44.762 29.497 69.933h-166.702c6.028-25.173 16.504-50.13 29.497-69.933zm-61.108 89.932h229.667c-4.28 13.883-17.23 24-32.5 24h-164.667c-15.269 0-28.22-10.117-32.5-24zm39.2 94.903c5.727 3.239 12.333 5.097 19.368 5.097h27.039c11.712 0 22.244-5.132 29.48-13.258 7.237 8.127 17.768 13.258 29.48 13.258h27.039c6.817 0 13.236-1.738 18.837-4.792-3.876 38.299-36.306 68.292-75.611 68.292-39.406 0-71.898-30.153-75.632-68.597zm75.634 88.597c10.847 0 21.278-1.811 31.01-5.142l-31.01 155.404-31.01-155.404c9.732 3.331 20.163 5.142 31.01 5.142zm-90.16 94h12.747c2.029 0 4.057-.513 5.736-1.653 4.046-2.746 5.429-7.7 3.808-11.929l-24.009-62.585 40.192-24.38 39.62 198.547h-23.318zm308.287 98h-159.832l57.639-103.121c2.232-3.991 1.522-9.122-2.1-12.378-1.871-1.681-4.363-2.501-6.879-2.501h-15.203l10.07-26.25h39.971c42.158 0 76.333 34.176 76.333 76.333v67.917z"/><path id="XMLID_1148_" d="m28.001 434.082c2.63 0 5.21-1.07 7.069-2.931 1.86-1.859 2.931-4.439 2.931-7.069s-1.07-5.21-2.931-7.07c-1.859-1.86-4.439-2.93-7.069-2.93s-5.21 1.069-7.07 2.93c-1.86 1.86-2.93 4.44-2.93 7.07s1.069 5.21 2.93 7.069c1.86 1.861 4.44 2.931 7.07 2.931z"/></g></g></svg>