<svg id="Capa_1" enable-background="new 0 0 512.019 512.019" height="512" viewBox="0 0 512.019 512.019" width="512" xmlns="http://www.w3.org/2000/svg"><g id="XMLID_1606_"><path id="XMLID_1566_" d="m241.994 230.439c-16.997-63.435-82.885-100.975-146.278-82.953-59.961 17.046-96.564 78.611-82.821 139.414 11.373 50.313 53.094 85.374 100.956 91.222l7.963 29.717c1.965 7.335 9.505 11.688 16.84 9.723l58.439-15.659c7.335-1.965 11.688-9.505 9.723-16.84l-7.963-29.717c37.335-28.099 55.958-77.075 43.141-124.907z" fill="#c3d3dd"/><path id="XMLID_1565_" d="m502.019 128.01c0-65.673-53.927-118.987-119.824-117.986-62.33.946-113.62 50.94-116.082 113.228-2.037 51.543 29.189 96.207 73.906 114.243v30.765c0 7.594 6.156 13.75 13.75 13.75h60.5c7.594 0 13.75-6.156 13.75-13.75v-30.765c43.335-17.478 74-59.965 74-109.485z" fill="#a7bcce"/><circle id="XMLID_1564_" cx="128.015" cy="260.979" fill="#fff" r="68"/><circle id="XMLID_1344_" cx="384.019" cy="128.01" fill="#fff" r="68"/><g id="XMLID_176_"><path id="XMLID_178_" d="m150.454 364.02c-1.87 1.86-2.93 4.44-2.93 7.07s1.06 5.21 2.93 7.08c1.86 1.859 4.43 2.93 7.07 2.93 2.63 0 5.21-1.07 7.07-2.93 1.86-1.87 2.93-4.45 2.93-7.08s-1.07-5.21-2.93-7.07-4.44-2.93-7.07-2.93c-2.641.001-5.21 1.07-7.07 2.93z"/><path id="XMLID_297_" d="m473.795 36.85c-24.643-24.27-57.237-37.327-91.752-36.825-32.716.497-63.728 13.442-87.321 36.451-23.6 23.015-37.309 53.692-38.601 86.382-2.041 51.638 27.416 99.493 73.898 121.19v24.212c0 13.096 10.654 23.75 23.75 23.75h20.25v14.138c-5.025.376-9.942 1.876-14.435 4.47-7.865 4.541-13.491 11.873-15.841 20.646l-6.211 23.182c-1.569 5.854-1.495 11.765-.076 17.251-5.886 1.48-11.284 4.526-15.688 8.93l-16.97 16.971c-5.685 5.686-9.104 13.031-9.814 20.942-8.062-1.586-16.328-.229-23.511 3.918l-20.784 12c-5.915 3.414-10.563 8.409-13.505 14.408-2.655-1.597-5.568-2.862-8.706-3.703l-23.182-6.211c-6.13-1.643-12.449-1.542-18.383.213l-6.045-22.561 18.815-5.042c12.648-3.39 20.182-16.438 16.793-29.088l-6.268-23.39c24.661-20.739 40.887-50.453 44.858-82.534.678-5.481-3.215-10.475-8.696-11.152-5.485-.686-10.475 3.214-11.153 8.695-3.588 28.991-19.035 55.694-42.377 73.262-3.259 2.453-4.702 6.639-3.646 10.578l7.963 29.717c.535 1.998-.655 4.059-2.651 4.594l-58.44 15.658c-1.304.351-2.343-.085-2.844-.374-.502-.291-1.397-.972-1.748-2.277l-7.963-29.717c-1.056-3.94-4.398-6.844-8.446-7.338-45.236-5.527-82.374-39.083-92.415-83.501-12.629-55.872 21.694-112.187 76.829-127.86 3.735-.884 8.629-.604 11.967 1.323 3.47 2.004 5.952 5.238 6.989 9.107 2.141 7.99-2.618 16.231-10.606 18.372-41.544 11.131-66.286 53.985-55.155 95.529 9.327 34.809 40.923 57.822 75.361 57.822 6.663 0 13.435-.862 20.169-2.667 41.544-11.132 66.286-53.987 55.154-95.53-8.536-31.857-35.732-53.814-66.681-57.311 2.504-6.62 3.043-14.05 1.076-21.393-.843-3.143-2.102-6.102-3.717-8.828 31.127 1.862 60.901 17.12 80.258 42.752 3.328 4.407 9.598 5.281 14.006 1.954 4.407-3.328 5.282-9.6 1.954-14.007-15.385-20.373-36.319-35.573-60.539-43.959-24.849-8.604-51.382-9.341-76.732-2.134-31.473 8.947-58.077 29.478-74.912 57.809-16.839 28.34-22.141 61.52-14.928 93.43 11.394 50.406 52.232 89.007 102.747 97.935l6.267 23.387c1.642 6.128 5.571 11.249 11.065 14.421 3.659 2.113 7.721 3.192 11.836 3.192 2.064 0 4.14-.271 6.186-.819l20.306-5.441 7.88 29.411c-2.643 3.473-4.611 7.46-5.775 11.803-4.853 18.109 5.933 36.789 24.041 41.642l23.182 6.211c2.937.787 5.887 1.163 8.793 1.162 12.849 0 24.785-7.354 30.508-18.987 5.304 3.177 11.389 4.875 17.566 4.875 5.764 0 11.603-1.465 16.943-4.548l20.785-12c9.913-5.724 15.845-15.722 16.835-26.335 2.13.412 4.314.626 6.531.626 9.082 0 17.62-3.536 24.042-9.958l16.97-16.971c6.422-6.422 9.958-14.96 9.958-24.042 0-2.899-.364-5.741-1.064-8.478 11.522-2.949 21.177-11.861 24.468-24.144l6.211-23.183c2.351-8.771 1.145-17.935-3.397-25.799-2.948-5.106-7.078-9.261-12.01-12.196v-18.858h20.25c13.096 0 23.75-10.654 23.75-23.75v-24.21c20.708-9.656 38.413-24.628 51.486-43.61 14.729-21.386 22.514-46.432 22.514-72.43.002-34.507-13.574-66.881-38.222-91.16zm-345.793 166.123c25.606 0 49.102 17.113 56.038 42.994 8.277 30.892-10.121 62.758-41.013 71.036h.001c-30.889 8.272-62.758-10.12-71.036-41.013-8.277-30.892 10.121-62.758 41.012-71.035 5.009-1.341 10.041-1.982 14.998-1.982zm105.198 278.656c-1.998 7.455-9.689 11.9-17.147 9.898l-23.182-6.211c-7.456-1.998-11.897-9.69-9.899-17.147.968-3.611 3.284-6.63 6.523-8.5 2.157-1.245 4.551-1.882 6.977-1.882 1.216 0 2.44.16 3.647.483l23.182 6.211c7.456 1.998 11.897 9.691 9.899 17.148zm62.272-17.602-20.784 12c-6.686 3.859-15.264 1.561-19.125-5.125-1.87-3.238-2.366-7.011-1.398-10.623s3.284-6.631 6.523-8.501l20.785-12c2.157-1.246 4.551-1.882 6.977-1.882 1.216 0 2.44.16 3.646.483 3.612.968 6.631 3.284 8.501 6.522 3.859 6.687 1.56 15.266-5.125 19.126zm60.237-49.46-16.971 16.971c-2.644 2.645-6.16 4.101-9.899 4.101-3.74 0-7.255-1.456-9.899-4.101h-.001c-2.644-2.644-4.1-6.159-4.1-9.899 0-3.739 1.456-7.255 4.101-9.898l16.971-16.971c2.644-2.645 6.16-4.102 9.899-4.102 3.74 0 7.255 1.457 9.9 4.102 2.644 2.644 4.1 6.159 4.1 9.898-.001 3.74-1.457 7.256-4.101 9.899zm34.398-70.88-6.212 23.183c-1.999 7.455-9.693 11.898-17.146 9.899-7.457-1.998-11.897-9.69-9.9-17.147l6.212-23.182c.968-3.612 3.285-6.631 6.523-8.501 2.157-1.245 4.551-1.882 6.977-1.882 1.216 0 2.44.16 3.646.483 3.612.968 6.631 3.284 8.501 6.523s2.366 7.012 1.399 10.624zm-6.924-323.677c.031 0 .062.004.094.005-.143-.003-.439-.005-.094-.005zm41.095 208.211c-3.782 1.526-6.259 5.196-6.259 9.275v30.765c0 2.067-1.682 3.75-3.75 3.75h-60.5c-2.068 0-3.75-1.683-3.75-3.75v-30.765c0-4.078-2.477-7.748-6.259-9.275-42.265-17.047-69.453-59.071-67.654-104.574 2.262-57.236 49.766-102.754 107.078-103.624.122-.002.155-.003.152-.005 8.21.083 15.683 6.772 15.683 14.992 0 8.271-6.729 15-15 15-43.009 0-78 34.99-78 78s34.991 78 78 78 78-34.99 78-78c0-32.98-20.584-61.224-49.571-72.612 4.132-5.746 6.571-12.786 6.571-20.388 0-3.358-.495-6.599-1.382-9.676 15.645 5.121 30.019 13.842 42.124 25.765 20.802 20.489 32.259 47.803 32.259 76.911-.001 44.279-26.591 83.614-67.742 100.211zm17.741-100.211c0 31.981-26.019 58-58 58-31.982 0-58-26.019-58-58s26.019-58 58-58 58 26.019 58 58z"/><path id="XMLID_306_" d="m384.014 232.01c-2.63 0-5.21 1.069-7.07 2.93-1.86 1.86-2.93 4.44-2.93 7.07s1.07 5.21 2.93 7.069c1.86 1.86 4.44 2.931 7.07 2.931 2.64 0 5.22-1.07 7.08-2.931 1.86-1.859 2.92-4.439 2.92-7.069s-1.06-5.21-2.92-7.07c-1.861-1.86-4.441-2.93-7.08-2.93z"/><path id="XMLID_307_" d="m234.923 237.51c1.86 1.859 4.44 2.93 7.07 2.93s5.21-1.07 7.07-2.93 2.93-4.44 2.93-7.07-1.07-5.21-2.93-7.07c-1.86-1.859-4.44-2.93-7.07-2.93s-5.21 1.07-7.07 2.93-2.93 4.44-2.93 7.07 1.071 5.21 2.93 7.07z"/></g></g></svg>