<svg id="Capa_1" enable-background="new 0 0 512 512" height="512" viewBox="0 0 512 512" width="512" xmlns="http://www.w3.org/2000/svg"><g id="XMLID_326_"><path id="XMLID_325_" d="m417.044 229.886c52.04 16.218 84.956 40.945 84.956 71.115 0 55.188-110.138 114.667-246 114.667s-246-59.479-246-114.667c0-29.858 32.237-54.384 83.345-70.609z" fill="#c68a65"/><path id="XMLID_324_" d="m82.945 286.515c101.176 79.286 244.68 79.286 345.856 0-7.309-56.541-30.104-121.184-62.412-170.429-15.257-23.256-48.369-26.525-67.667-6.495-12.822 13.308-27.395 21.674-42.849 21.674-15.455 0-30.028-8.366-42.85-21.674-19.298-20.03-52.41-16.761-67.667 6.495-32.307 49.245-55.102 113.888-62.411 170.429z" fill="#d1a184"/><path id="XMLID_413_" d="m428.801 286.514c-2.161-16.714-5.684-34.137-10.397-51.659l-.005-.001c-95.09 74.517-229.963 74.517-325.053 0l-.003-.003c-4.713 17.524-8.238 34.948-10.398 51.663 101.176 79.286 244.68 79.287 345.856 0z" fill="#c3d3dd"/><g id="XMLID_1866_"><path id="XMLID_1869_" d="m425.225 222.012c-11.78-40.061-29.332-79.185-50.474-111.412-8.99-13.702-23.534-22.437-39.904-23.965-16.265-1.52-32.056 4.319-43.326 16.018-11.899 12.351-23.893 18.613-35.648 18.613s-23.749-6.262-35.648-18.612c-11.27-11.698-27.063-17.54-43.326-16.019-16.37 1.528-30.915 10.263-39.904 23.966-21.16 32.254-38.723 71.416-50.504 111.511-25.503 8.449-45.797 18.783-60.339 30.753-17.353 14.282-26.152 30.478-26.152 48.136 0 27.841 22.244 55.919 62.635 79.062 39.26 22.495 91.6 37.895 147.377 43.364.332.033.662.049.988.049 5.083 0 9.434-3.86 9.94-9.025.539-5.497-3.48-10.39-8.976-10.928-53.025-5.199-102.526-19.694-139.386-40.813-33.414-19.145-52.578-41.637-52.578-61.709 0-20.683 21.746-40.468 60.289-55.424-3.127 13.316-5.575 26.607-7.262 39.656-.452 3.499.973 6.977 3.75 9.153 50.685 39.719 114.289 61.593 179.096 61.593 64.803 0 128.414-21.876 179.096-61.593 2.777-2.176 4.202-5.654 3.75-9.153-1.692-13.087-4.149-26.418-7.289-39.773 38.743 14.969 60.57 34.774 60.57 55.541 0 20.081-19.178 42.58-52.616 61.73-36.887 21.125-86.419 35.617-139.471 40.804-5.497.538-9.517 5.429-8.979 10.926.505 5.166 4.856 9.027 9.94 9.027.326 0 .654-.016.985-.048 55.806-5.457 108.176-20.853 147.464-43.354 40.418-23.146 62.677-51.233 62.677-79.085 0-32.535-30.76-60.471-86.775-78.989zm-271.507-100.442c5.634-8.588 14.761-14.063 25.041-15.023 10.175-.95 20.037 2.688 27.063 9.981 15.591 16.182 32.898 24.736 50.051 24.736s34.46-8.554 50.051-24.736c7.026-7.293 16.892-10.931 27.064-9.981 10.279.959 19.406 6.435 25.04 15.022 20.698 31.55 37.775 70.077 48.98 109.388-89.902 66.832-212.368 66.831-302.27 0 11.205-39.31 28.282-77.836 48.98-109.387zm-60.074 160.549c1.466-10.039 3.397-20.206 5.742-30.393 45.548 31.695 100.538 49.015 156.487 49.015s110.938-17.32 156.487-49.015c2.345 10.187 4.276 20.354 5.742 30.393-96.317 72.3-228.141 72.3-324.458 0z"/><path id="XMLID_1871_" d="m255.94 405.604c-2.64 0-5.21 1.07-7.08 2.93-1.86 1.86-2.92 4.44-2.92 7.07s1.06 5.21 2.92 7.07c1.87 1.86 4.44 2.93 7.08 2.93 2.63 0 5.21-1.07 7.07-2.93s2.93-4.44 2.93-7.07-1.07-5.21-2.93-7.07c-1.86-1.861-4.44-2.93-7.07-2.93z"/></g></g></svg>