<svg id="Capa_1" enable-background="new 0 0 512 512" height="512" viewBox="0 0 512 512" width="512" xmlns="http://www.w3.org/2000/svg"><g id="XMLID_1487_"><path id="XMLID_1486_" d="m10 171.734h45v59.333h-45z" fill="#80b4ff"/><path id="XMLID_1485_" d="m164.434 410.099h44.225v40h-44.225z" fill="#80b4ff" transform="matrix(.861 -.509 .509 .861 -192.97 154.869)"/><path id="XMLID_1484_" d="m322 300.734-3.527-.019c-38.246-.207-75.931-9.21-110.14-26.314v-10.956c0-12.841-10.409-23.25-23.25-23.25-12.841 0-23.25 10.409-23.25 23.25 0 10.715 2.475 21.285 7.232 30.886l37.811 76.32c5.15 10.395 1.436 23.003-8.527 28.947l-41.711 24.883c-10.23 6.103-23.453 3.053-29.977-6.915l-13.981-21.362c-37.634-57.507-57.68-124.743-57.68-193.47v-11.334-19.583c0-15.694 12.723-28.417 28.417-28.417h110.25c5.397-8.51 14.773-13.667 24.85-13.667h123.15z" fill="#a7bcce"/><circle id="XMLID_1483_" cx="115.668" cy="203.942" fill="#ff7b79" r="20.5"/><path id="XMLID_1481_" d="m399.361 426.959c-103.148-103.148-103.148-270.383 0-373.53z" fill="#a0c8ff"/><circle id="XMLID_1368_" cx="478" cy="240.194" fill="#ff7b79" r="24"/><g id="XMLID_154_"><path id="XMLID_693_" d="m478 206.194c-15.269 0-28.217 10.118-32.497 24h-36.143v-176.765c0-4.045-2.437-7.691-6.173-9.239-3.737-1.546-8.038-.692-10.898 2.168-21.477 21.479-39.183 46.338-52.435 73.377h-121.337c-11.629 0-22.428 5.021-29.856 13.666h-105.244c-17.694 0-32.624 12.027-37.065 28.334h-36.352c-5.523 0-10 4.477-10 10v59.333c0 5.522 4.477 10 10 10h37.023c6.034 57.184 25.53 112.081 57.291 160.611l13.98 21.362c6.181 9.444 16.433 14.607 26.942 14.607 2.629 0 5.273-.337 7.875-.998l15.977 27.012c1.351 2.283 3.552 3.936 6.121 4.595.819.211 1.654.314 2.486.314 1.775 0 3.536-.474 5.091-1.393l38.065-22.515c4.754-2.812 6.328-8.944 3.517-13.698l-15.741-26.615c10.393-9.489 13.66-25.121 7.21-38.14l-37.811-76.319c-4.051-8.178-6.192-17.323-6.192-26.447 0-7.306 5.944-13.25 13.25-13.25s13.25 5.944 13.25 13.25v10.956c0 3.788 2.14 7.25 5.528 8.944 35.383 17.691 74.996 27.156 114.557 27.37l2.814.016c12.334 46.325 36.696 88.938 71.057 123.3 1.913 1.913 4.471 2.929 7.073 2.929 1.288 0 2.588-.249 3.825-.761 3.736-1.548 6.173-5.194 6.173-9.239v-176.765h36.142c4.28 13.882 17.228 24 32.497 24 18.748 0 34-15.252 34-34s-15.252-34-34-34zm-433 14.873h-25v-39.333h25zm136.212 223.806-10.234-17.303 20.805-12.411 10.28 17.381zm208.148-43.855c-33.166-40.565-53.11-90.548-56.75-143.178-.382-5.509-5.143-9.657-10.667-9.286-5.51.382-9.667 5.157-9.286 10.667.733 10.602 2.088 21.103 4.027 31.458-33.851-.45-67.682-8.204-98.351-22.55v-4.686c0-18.334-14.916-33.25-33.25-33.25s-33.25 14.916-33.25 33.25c0 12.188 2.86 24.402 8.271 35.325l37.811 76.32c2.815 5.68.754 12.672-4.689 15.92l-41.712 24.883c-5.645 3.368-12.885 1.696-16.485-3.803l-13.98-21.362c-36.668-56.027-56.049-121.034-56.049-187.992v-30.917c0-10.155 8.262-18.417 18.417-18.417h110.25c3.425 0 6.611-1.752 8.445-4.645 3.582-5.65 9.715-9.021 16.404-9.021h112.51c-3.461 8.778-6.476 17.738-9.007 26.852-1.479 5.321 1.637 10.833 6.959 12.311 5.312 1.477 10.833-1.637 12.311-6.959 9.386-33.789 25.834-65.371 48.071-92.567zm88.64-146.824c-7.72 0-14-6.28-14-14s6.28-14 14-14 14 6.28 14 14-6.28 14-14 14z"/><path id="XMLID_702_" d="m115.668 173.442c-16.817 0-30.5 13.683-30.5 30.5s13.683 30.5 30.5 30.5 30.5-13.683 30.5-30.5-13.683-30.5-30.5-30.5zm0 41c-5.79 0-10.5-4.71-10.5-10.5s4.71-10.5 10.5-10.5 10.5 4.71 10.5 10.5-4.71 10.5-10.5 10.5z"/><path id="XMLID_703_" d="m278 169.067c-5.522 0-10 4.477-10 10v16c0 5.522 4.478 10 10 10s10-4.478 10-10v-16c0-5.522-4.478-10-10-10z"/><path id="XMLID_704_" d="m238 169.067c-5.523 0-10 4.477-10 10v16c0 5.522 4.477 10 10 10s10-4.478 10-10v-16c0-5.522-4.477-10-10-10z"/><path id="XMLID_705_" d="m323.35 203.479c-2.63 0-5.21 1.07-7.069 2.931-1.86 1.869-2.931 4.439-2.931 7.069s1.07 5.21 2.931 7.08c1.859 1.86 4.439 2.931 7.069 2.931s5.21-1.07 7.07-2.931c1.86-1.87 2.93-4.439 2.93-7.08 0-2.63-1.069-5.21-2.93-7.069-1.86-1.86-4.441-2.931-7.07-2.931z"/></g></g></svg>