<svg id="Capa_1" enable-background="new 0 0 512.002 512.002" height="512" viewBox="0 0 512.002 512.002" width="512" xmlns="http://www.w3.org/2000/svg"><g id="XMLID_1669_"><path id="XMLID_1662_" d="m256.001 502.002-146.286-216.882c-47.234-70.029-38.213-163.71 21.516-223.439 68.909-68.908 180.631-68.908 249.54 0 59.729 59.729 68.75 153.41 21.516 223.439z" fill="#ff7b79"/><circle id="XMLID_1660_" cx="256.001" cy="186.451" fill="#fff" r="111.409"/><g id="XMLID_1967_"><path id="XMLID_1262_" d="m279.822 209.001h-47.642c-21.638 0-39.179 17.541-39.179 39.179v21.5c0 15.563 12.617 28.18 28.18 28.18h69.64c15.563 0 28.18-12.617 28.18-28.18v-21.5c0-21.638-17.541-39.179-39.179-39.179z" fill="#a7bcce"/><path id="XMLID_1260_" d="m256.001 146.001c-15.464 0-28 12.536-28 28v7c0 15.464 12.536 28 28 28 15.464 0 28-12.536 28-28v-7c0-15.464-12.536-28-28-28z" fill="#f5dbcd"/></g><g id="XMLID_568_"><path id="XMLID_606_" d="m387.842 54.609c-35.216-35.215-82.038-54.609-131.841-54.609s-96.625 19.395-131.841 54.61c-62.973 62.974-72.534 162.269-22.735 236.102l146.285 216.882c1.859 2.756 4.966 4.408 8.29 4.408s6.432-1.652 8.29-4.408l146.286-216.882c49.801-73.834 40.239-173.129-22.734-236.103zm6.155 224.919-137.996 204.591-137.995-204.591c-44.457-65.913-35.922-154.558 20.296-210.776 31.439-31.439 73.238-48.752 117.699-48.752s86.26 17.313 117.698 48.753c56.219 56.218 64.755 144.861 20.298 210.775z"/><path id="XMLID_1149_" d="m304.049 74.923c-5.07-2.185-10.956.15-13.144 5.222-2.188 5.071.15 10.956 5.222 13.144 37.228 16.058 61.283 52.627 61.283 93.163 0 27.277-10.829 52.07-28.409 70.315v-8.585c0-23.993-17.274-44.014-40.035-48.314 3.197-5.563 5.035-12.002 5.035-18.866v-7c0-20.953-17.047-38-38-38s-38 17.047-38 38v7c0 6.864 1.839 13.302 5.035 18.866-22.762 4.299-40.035 24.321-40.035 48.314v8.585c-17.58-18.245-28.409-43.038-28.409-70.315 0-40.537 24.055-77.105 61.282-93.163 5.071-2.188 7.409-8.072 5.222-13.144-2.188-5.07-8.071-7.408-13.143-5.222-44.565 19.224-73.361 63.001-73.361 111.528 0 66.945 54.464 121.409 121.409 121.409s121.409-54.464 121.409-121.409c0-48.527-28.796-92.305-73.361-111.528zm-66.048 99.078c0-9.925 8.075-18 18-18s18 8.075 18 18v7c0 9.925-8.075 18-18 18s-18-8.075-18-18zm-35 98.873v-24.693c0-16.09 13.09-29.18 29.179-29.18h47.641c16.09 0 29.18 13.09 29.18 29.18v24.693c-15.433 9.499-33.587 14.987-53 14.987s-37.567-5.488-53-14.987z"/><path id="XMLID_1298_" d="m256.001 85.041c2.63 0 5.21-1.07 7.069-2.931 1.86-1.859 2.931-4.439 2.931-7.069s-1.07-5.21-2.931-7.07c-1.859-1.86-4.439-2.93-7.069-2.93s-5.21 1.069-7.07 2.93c-1.86 1.86-2.93 4.44-2.93 7.07s1.07 5.21 2.93 7.069c1.86 1.861 4.44 2.931 7.07 2.931z"/></g></g></svg>