<svg id="Capa_1" enable-background="new 0 0 512 512" height="512" viewBox="0 0 512 512" width="512" xmlns="http://www.w3.org/2000/svg"><g id="XMLID_34_"><path id="XMLID_676_" d="m19.45 492.55c12.6 12.6 33.027 12.6 45.627 0l126.364-126.364-45.627-45.627-126.364 126.365c-12.6 12.599-12.6 33.027 0 45.626z" fill="#ffd88e"/><path id="XMLID_675_" d="m169.134 259.724-23.827 23.827c-10.08 10.08-10.08 26.422 0 36.501l46.641 46.641c10.08 10.08 26.422 10.08 36.501 0l23.827-23.827z" fill="#fff"/><circle id="XMLID_674_" cx="327.651" cy="184.349" fill="#a0c8ff" r="174.349"/><circle id="XMLID_90_" cx="327.651" cy="184.349" fill="#dfecff" r="122"/><g id="XMLID_1873_"><path id="XMLID_1877_" d="m327.651 52.349c-72.785 0-132 59.215-132 132s59.215 132 132 132 132-59.215 132-132c0-72.786-59.214-132-132-132zm0 20c61.757 0 112 50.243 112 112s-50.243 112-112 112-112-50.243-112-112 50.244-112 112-112z"/><path id="XMLID_1878_" d="m388.597 123.404c3.905 3.905 3.905 10.237 0 14.142s-10.237 3.905-14.142-.001c-12.502-12.501-29.123-19.387-46.803-19.387s-34.302 6.885-46.803 19.387c-1.953 1.953-4.512 2.929-7.071 2.929s-5.119-.977-7.071-2.929c-3.905-3.905-3.906-10.237 0-14.142 16.279-16.28 37.923-25.245 60.946-25.245 23.02.001 44.664 8.966 60.944 25.246z"/><path id="XMLID_1881_" d="m0 469.737c0 11.289 4.396 21.902 12.378 29.885 7.983 7.982 18.596 12.378 29.885 12.378s21.902-4.396 29.884-12.379l120.161-120.16c5.516 3.179 11.702 4.776 17.89 4.776 9.17 0 18.34-3.491 25.322-10.472l19.84-19.841c22.209 9.504 46.645 14.774 72.291 14.774 101.65 0 184.349-82.698 184.349-184.349 0-83.633-56.408-156.935-137.175-178.255-5.336-1.41-10.811 1.776-12.221 7.117-1.41 5.34 1.777 10.811 7.117 12.221 71.996 19.005 122.279 84.354 122.279 158.917 0 90.622-73.727 164.349-164.349 164.349s-164.349-73.727-164.349-164.349c0-74.561 50.281-139.909 122.275-158.916 5.34-1.41 8.526-6.882 7.116-12.222s-6.883-8.523-12.222-7.116c-80.764 21.322-137.17 94.623-137.17 178.254 0 25.645 5.27 50.081 14.774 72.291l-19.841 19.84c-11.693 11.693-13.587 29.523-5.697 43.212l-120.159 120.161c-7.982 7.982-12.378 18.595-12.378 29.884zm199.019-110.115-46.641-46.641c-6.165-6.164-6.165-16.195 0-22.359l15.097-15.097c16.403 28.704 40.296 52.597 69 69l-15.097 15.098c-6.165 6.164-16.195 6.164-22.359-.001zm-179.019 110.115c0-5.946 2.316-11.537 6.521-15.742l119.293-119.293 31.484 31.484-119.293 119.293c-4.205 4.205-9.796 6.521-15.742 6.521-5.947 0-11.538-2.316-15.742-6.521-4.205-4.205-6.521-9.795-6.521-15.742z"/><path id="XMLID_1884_" d="m327.65 20c-2.63 0-5.211-1.07-7.07-2.93-1.86-1.86-2.93-4.44-2.93-7.07s1.07-5.21 2.93-7.07 4.44-2.93 7.07-2.93 5.21 1.07 7.07 2.93 2.93 4.44 2.93 7.07-1.07 5.21-2.93 7.07-4.44 2.93-7.07 2.93z"/></g></g></svg>