<svg id="Capa_1" enable-background="new 0 0 512 512" height="512" viewBox="0 0 512 512" width="512" xmlns="http://www.w3.org/2000/svg"><g id="XMLID_20_"><path id="XMLID_984_" d="m34 10h444v218.378h-444z" fill="#5cd0b3"/><path id="XMLID_1348_" d="m34 125h444v240h-444z" fill="#9de2d0"/><path id="XMLID_237_" d="m401.5 317h-291c0-15.74-12.76-28.5-28.5-28.5v-87c15.74 0 28.5-12.76 28.5-28.5h291c0 15.74 12.76 28.5 28.5 28.5v87c-15.74 0-28.5 12.76-28.5 28.5z" fill="#ddf4ef"/><path id="XMLID_1969_" d="m10 187v315h492v-315l-246 178z" fill="#ffd88e"/><circle id="XMLID_953_" cx="256" cy="245" fill="#7dd9c2" r="32"/><g id="XMLID_215_"><path id="XMLID_232_" d="m256 203c-23.159 0-42 18.841-42 42s18.841 42 42 42 42-18.841 42-42-18.841-42-42-42zm0 64c-12.131 0-22-9.869-22-22s9.869-22 22-22 22 9.869 22 22-9.869 22-22 22z"/><path id="XMLID_240_" d="m256.06 134.94c2.629 0 5.209-1.07 7.07-2.93 1.87-1.87 2.93-4.44 2.93-7.07s-1.06-5.21-2.93-7.07c-1.86-1.87-4.44-2.93-7.07-2.93s-5.21 1.06-7.07 2.93c-1.86 1.86-2.93 4.43-2.93 7.07 0 2.63 1.07 5.21 2.93 7.07s4.44 2.93 7.07 2.93z"/><path id="XMLID_243_" d="m506.549 178.094c-3.346-1.708-7.366-1.399-10.411.804l-8.138 5.889v-174.787c0-5.523-4.478-10-10-10h-444c-5.523 0-10 4.477-10 10v174.787l-8.138-5.888c-3.044-2.203-7.066-2.513-10.411-.804-3.345 1.708-5.451 5.148-5.451 8.905v315c0 5.523 4.477 10 10 10h492c5.522 0 10-4.477 10-10v-315c0-3.757-2.105-7.197-5.451-8.906zm-38.549-158.094v37.5h-424v-37.5zm-424 115h167.063c5.523 0 10-4.477 10-10s-4.477-10-10-10h-167.063v-37.5h424v37.5h-166.938c-5.522 0-10 4.477-10 10s4.478 10 10 10h166.938v64.258l-28 20.26v-18.018c0-5.523-4.478-10-10-10-10.201 0-18.5-8.299-18.5-18.5 0-5.523-4.478-10-10-10h-291c-5.523 0-10 4.477-10 10 0 10.201-8.299 18.5-18.5 18.5-5.523 0-10 4.477-10 10v18.018l-28-20.26zm275.099 172h-126.198l-100.901-73.01v-23.807c13.208-3.555 23.628-13.975 27.183-27.183h273.633c3.556 13.208 13.976 23.628 27.184 27.183v23.807zm-27.641 20-35.458 25.657-35.458-25.657zm200.542 165h-472v-285.421l230.138 166.522c3.499 2.531 8.227 2.531 11.725 0l230.137-166.522z"/></g></g></svg>