<svg id="Capa_1" enable-background="new 0 0 512.001 512.001" height="512" viewBox="0 0 512.001 512.001" width="512" xmlns="http://www.w3.org/2000/svg"><g id="XMLID_1531_"><path id="XMLID_1656_" d="m351.807 106.501c-5.32-29.117-17.252-60.706-33.465-85.418-8.589-13.092-27.229-14.932-38.093-3.656-7.218 7.492-15.422 12.201-24.122 12.201s-16.904-4.71-24.122-12.201c-10.864-11.276-29.504-9.436-38.093 3.656-16.212 24.712-28.145 56.301-33.465 85.418z" fill="#d1a184"/><path id="XMLID_1649_" d="m382.334 106.501h-252.667c0 24.3 19.699 44 44 44h164.667c24.3 0 44-19.7 44-44z" fill="#c68a65"/><g id="XMLID_1945_" fill="#89a7bc"><path id="XMLID_1949_" d="m226.774 206.501h-27.04c-16.281 0-29.48-13.199-29.48-29.48v-26.52h86v26.52c0 16.281-13.198 29.48-29.48 29.48z"/><path id="XMLID_1948_" d="m312.774 206.501h-27.04c-16.281 0-29.48-13.199-29.48-29.48v-26.52h86v26.52c0 16.281-13.198 29.48-29.48 29.48z"/></g><path id="XMLID_1539_" d="m256.128 206.501h226v295.5h-226z" fill="#fff3da"/><path id="XMLID_1529_" d="m30.128 206.501h226v295.5h-226z" fill="#ffe6b4" transform="matrix(-1 0 0 -1 286.255 708.502)"/><path id="XMLID_1518_" d="m34 415.001h14.534c14.065 0 25.466-11.402 25.466-25.466v-25.067c0-14.065-11.402-25.466-25.466-25.466h-14.534c-13.255 0-24 10.745-24 24v28c0 13.254 10.746 23.999 24 23.999z" fill="#efb789"/><path id="XMLID_1515_" d="m478 415.001h-14.534c-14.065 0-25.466-11.402-25.466-25.466v-25.067c0-14.065 11.402-25.466 25.466-25.466h14.534c13.255 0 24 10.745 24 24v28c0 13.254-10.745 23.999-24 23.999z" fill="#efb789"/><path id="XMLID_1502_" d="m300.254 266.251h137.746v88h-137.746z" fill="#99c3ff"/><g id="XMLID_444_"><path id="XMLID_865_" d="m492.128 332.087v-125.586c0-5.523-4.477-10-10-10h-130.128v-37.829c23.049-6.156 40.333-27.208 40.333-52.171 0-5.522-4.477-10-10-10h-22.358c-6.349-28.932-18.257-58.016-33.272-80.903-5.794-8.832-15.166-14.461-25.712-15.446-10.488-.975-20.671 2.789-27.943 10.337-4.018 4.17-10.214 9.14-16.921 9.14s-12.903-4.971-16.921-9.139c-7.271-7.548-17.454-11.306-27.943-10.338-10.547.984-19.919 6.614-25.713 15.446-15.016 22.888-26.924 51.972-33.272 80.903h-22.612c-5.523 0-10 4.478-10 10 0 25.055 17.154 46.176 40.334 52.244v37.756h-129.872c-5.523 0-10 4.477-10 10v125.471c-11.849 5.319-20.127 17.221-20.127 31.029v28c0 13.808 8.278 25.71 20.127 31.029v79.971c0 5.522 4.477 10 10 10h452c5.523 0 10-4.477 10-10v-80.086c11.713-5.374 19.872-17.205 19.872-30.914v-28c0-13.709-8.159-25.54-19.872-30.914zm-.128 58.914c0 7.72-6.28 14-14 14h-14.534c-8.528 0-15.466-6.939-15.466-15.467v-25.067c0-8.528 6.938-15.466 15.466-15.466h14.534c7.72 0 14 6.28 14 14zm-311.746-213.98v-16.52h66v16.52c0 10.741-8.739 19.48-19.48 19.48h-27.04c-10.741 0-19.48-8.739-19.48-19.48zm86 0v-16.52h65.746v19.509c-1.446 9.324-9.504 16.491-19.226 16.491h-27.04c-10.741 0-19.48-8.739-19.48-19.48zm-63.98-150.453c2.438-3.717 6.393-6.087 10.849-6.503 4.398-.407 8.654 1.156 11.682 4.3 9.621 9.985 20.453 15.263 31.323 15.263 10.871 0 21.703-5.277 31.324-15.263 3.027-3.143 7.281-4.708 11.681-4.3 4.456.416 8.41 2.786 10.849 6.503 12.993 19.805 23.47 44.762 29.497 69.933h-166.7c6.025-25.171 16.501-50.127 29.495-69.933zm-61.107 89.933h229.666c-4.28 13.883-17.23 24-32.499 24h-164.667c-15.269 0-28.22-10.117-32.5-24zm-121.167 246.5c0-7.72 6.28-14 14-14h14.534c8.528 0 15.466 6.938 15.466 15.466v25.067c0 8.528-6.938 15.467-15.466 15.467h-14.534c-7.72 0-14-6.28-14-14zm246.128 129v-92.248c0-5.522-4.477-10-10-10s-10 4.478-10 10v92.248h-206v-67h8.407c12.689 0 23.838-6.703 30.106-16.75h33.154c5.523 0 10-4.478 10-10 0-5.523-4.477-10-10-10h-27.794v-23.784c0-.072-.005-.143-.006-.216h49.587c5.523 0 10-4.478 10-10 0-5.523-4.477-10-10-10h-55.932c-6.413-9.208-17.069-15.25-29.116-15.25h-8.407v-112.5h206v93.248c0 5.523 4.477 10 10 10s10-4.477 10-10v-93.248h206v112.5h-8.661c-5.542 0-10.789 1.28-15.466 3.556v-66.306c0-5.523-4.477-10-10-10h-137.746c-5.523 0-10 4.477-10 10v88c0 5.522 4.477 10 10 10h127.752c0 .072-.006.144-.006.216v23.784h-27.54c-5.523 0-10 4.477-10 10 0 5.522 4.477 10 10 10h32.9c6.269 10.047 17.417 16.75 30.106 16.75h8.661v67zm161.872-215.75v68h-117.746v-68z"/><path id="XMLID_909_" d="m358.794 388.251h-58.54c-5.523 0-10 4.477-10 10 0 5.522 4.477 10 10 10h58.54c5.523 0 10-4.478 10-10 0-5.523-4.477-10-10-10z"/><path id="XMLID_910_" d="m437.213 432.251h-58.54c-5.523 0-10 4.477-10 10 0 5.522 4.477 10 10 10h58.54c5.523 0 10-4.478 10-10 0-5.523-4.477-10-10-10z"/><path id="XMLID_911_" d="m337.007 432.251h-36.752c-5.523 0-10 4.477-10 10 0 5.522 4.477 10 10 10h36.752c5.523 0 10-4.478 10-10 0-5.523-4.477-10-10-10z"/><path id="XMLID_925_" d="m212.001 388.251h-58.54c-5.523 0-10 4.477-10 10 0 5.522 4.477 10 10 10h58.54c5.523 0 10-4.478 10-10 0-5.523-4.478-10-10-10z"/><path id="XMLID_926_" d="m133.582 432.251h-58.54c-5.523 0-10 4.477-10 10 0 5.522 4.477 10 10 10h58.54c5.523 0 10-4.478 10-10 0-5.523-4.477-10-10-10z"/><path id="XMLID_927_" d="m212.001 432.251h-36.752c-5.523 0-10 4.477-10 10 0 5.522 4.477 10 10 10h36.752c5.523 0 10-4.478 10-10 0-5.523-4.478-10-10-10z"/><path id="XMLID_928_" d="m212.001 300.251h-58.54c-5.523 0-10 4.477-10 10 0 5.522 4.477 10 10 10h58.54c5.523 0 10-4.478 10-10 0-5.523-4.478-10-10-10z"/><path id="XMLID_929_" d="m111.794 300.251h-36.752c-5.523 0-10 4.477-10 10 0 5.522 4.477 10 10 10h36.753c5.523 0 10-4.478 10-10-.001-5.523-4.478-10-10.001-10z"/><path id="XMLID_930_" d="m212.001 344.251h-36.752c-5.523 0-10 4.477-10 10 0 5.522 4.477 10 10 10h36.752c5.523 0 10-4.478 10-10 0-5.523-4.478-10-10-10z"/><path id="XMLID_931_" d="m133.582 256.251h-58.54c-5.523 0-10 4.477-10 10 0 5.522 4.477 10 10 10h58.54c5.523 0 10-4.478 10-10 0-5.523-4.477-10-10-10z"/><path id="XMLID_932_" d="m212.001 256.251h-36.752c-5.523 0-10 4.477-10 10 0 5.522 4.477 10 10 10h36.752c5.523 0 10-4.478 10-10 0-5.523-4.478-10-10-10z"/><path id="XMLID_933_" d="m256.26 344.751c-2.64 0-5.22 1.069-7.08 2.93-1.86 1.86-2.93 4.44-2.93 7.07s1.07 5.21 2.93 7.069c1.86 1.86 4.44 2.931 7.08 2.931 2.63 0 5.2-1.07 7.07-2.931 1.86-1.859 2.92-4.439 2.92-7.069s-1.06-5.21-2.92-7.07c-1.869-1.861-4.44-2.93-7.07-2.93z"/></g></g></svg>