<svg id="Capa_1" enable-background="new 0 0 512 512" height="512" viewBox="0 0 512 512" width="512" xmlns="http://www.w3.org/2000/svg"><g id="XMLID_239_"><path id="XMLID_781_" d="m10.011 24h384v478h-384z" fill="#ffcd69" transform="matrix(-1 0 0 -1 404.022 526)"/><path id="XMLID_493_" d="m54.011 68h296v390h-296z" fill="#fff" transform="matrix(-1 0 0 -1 404.022 526)"/><g id="XMLID_777_"><path id="XMLID_1274_" d="m327.376 476.604-44.84 25.396v-51.284l171.152-296.444c7.149-12.382 22.982-16.625 35.364-9.476 12.382 7.149 16.625 22.982 9.476 35.364z" fill="#80b4ff"/><path id="XMLID_1732_" d="m489.052 144.796c12.382 7.149 16.625 22.982 9.476 35.364l-13.92 24.111-.273.042-42.811-24.717-1.622-1.443 13.787-23.88c7.148-12.384 22.981-16.626 35.363-9.477z" fill="#ff7b79"/></g><g id="XMLID_143_"><path id="XMLID_144_" d="m109.922 161.048 6.344-6.344c4.951-4.952 13.01-4.952 17.961 0l6.103 6.102c4.931 4.93 11.406 7.395 17.882 7.395s12.951-2.465 17.882-7.395c2.062-2.062 5.418-2.062 7.479 0 9.861 9.859 25.904 9.86 35.764 0l7.393-7.393c1.77-1.77 4.121-2.744 6.623-2.744 2.503 0 4.855.975 6.624 2.744l6.229 6.229c10.502 10.499 27.59 10.502 38.09 0 2.705-2.704 7.103-2.703 9.807 0 3.906 3.905 10.238 3.905 14.143-.001 3.905-3.905 3.905-10.237-.001-14.142-10.5-10.502-27.588-10.499-38.09 0-2.705 2.705-7.105 2.703-9.806 0l-6.229-6.23c-11.451-11.451-30.081-11.449-41.532.001l-7.393 7.393c-2.061 2.062-5.416 2.062-7.479 0-9.861-9.859-25.902-9.859-35.764 0-2.061 2.062-5.416 2.062-7.479 0l-6.102-6.103c-12.75-12.75-33.496-12.75-46.246 0l-6.344 6.344c-3.905 3.905-3.905 10.237 0 14.143 3.904 3.905 10.235 3.905 14.141.001z"/><path id="XMLID_160_" d="m109.921 229.691 6.345-6.343c4.951-4.951 13.009-4.952 17.962 0l6.102 6.102c4.931 4.93 11.405 7.396 17.882 7.395 6.476-.001 12.952-2.465 17.881-7.395 2.062-2.062 5.419-2.061 7.479 0 9.861 9.859 25.902 9.859 35.764 0l7.393-7.393c1.77-1.77 4.121-2.744 6.623-2.744 2.503 0 4.855.975 6.624 2.744l6.229 6.229c10.503 10.502 27.59 10.5 38.091 0 1.31-1.31 3.051-2.031 4.903-2.031s3.593.721 4.902 2.031c3.906 3.905 10.236 3.905 14.143 0 3.905-3.905 3.905-10.237 0-14.143-10.502-10.499-27.589-10.502-38.091 0-2.703 2.703-7.103 2.704-9.806 0l-6.229-6.23c-11.45-11.45-30.08-11.451-41.532 0l-7.393 7.393c-2.061 2.062-5.417 2.062-7.48 0-9.859-9.859-25.901-9.858-35.763 0-2.061 2.062-5.417 2.062-7.48 0l-6.101-6.102c-12.751-12.75-33.495-12.75-46.246 0l-6.344 6.343c-3.905 3.905-3.905 10.237 0 14.142 3.906 3.908 10.237 3.908 14.142.002z"/><path id="XMLID_161_" d="m109.922 298.335 6.344-6.344c4.951-4.952 13.01-4.952 17.961 0l6.104 6.103c4.93 4.93 11.405 7.395 17.881 7.395s12.951-2.465 17.882-7.395c2.062-2.062 5.417-2.062 7.48 0 9.859 9.859 25.903 9.859 35.763 0l7.393-7.393c1.77-1.77 4.121-2.744 6.623-2.744 2.503 0 4.855.975 6.624 2.744l6.229 6.229c10.502 10.5 27.59 10.502 38.09 0 2.705-2.705 7.103-2.703 9.807 0 3.906 3.905 10.238 3.905 14.143 0s3.905-10.237-.001-14.142c-10.5-10.501-27.588-10.498-38.09 0-2.705 2.705-7.105 2.703-9.806 0l-6.229-6.229c-11.451-11.451-30.081-11.448-41.532.001l-7.393 7.393c-2.061 2.062-5.418 2.062-7.479 0-9.86-9.859-25.904-9.86-35.763 0-2.062 2.062-5.419 2.062-7.479 0l-6.102-6.103c-12.75-12.75-33.496-12.75-46.246 0l-6.344 6.344c-3.905 3.905-3.905 10.237 0 14.142 3.903 3.904 10.234 3.904 14.14-.001z"/><path id="XMLID_162_" d="m212.585 345.203-7.393 7.393c-2.062 2.062-5.417 2.062-7.48 0-9.859-9.859-25.901-9.858-35.763 0-2.062 2.062-5.417 2.062-7.48 0l-6.101-6.102c-12.751-12.75-33.495-12.75-46.246 0l-6.343 6.343c-3.906 3.905-3.906 10.237-.001 14.142 3.906 3.906 10.237 3.906 14.142.001l6.345-6.343c2.398-2.399 5.588-3.72 8.98-3.72 3.393 0 6.582 1.321 8.982 3.72l6.102 6.102c4.931 4.93 11.405 7.396 17.882 7.395 6.475-.001 12.952-2.466 17.881-7.395 2.062-2.062 5.419-2.061 7.479 0 9.861 9.859 25.902 9.859 35.764 0l7.393-7.393c3.905-3.905 3.905-10.237 0-14.143-3.907-3.906-10.237-3.906-14.143 0z"/><path id="XMLID_1017_" d="m494.052 136.136c-17.135-9.892-39.128-4.003-49.024 13.136l-41.017 71.043v-196.315c0-5.523-4.478-10-10-10h-84.333v-4c0-5.523-4.478-10-10-10s-10 4.477-10 10v4h-77.667v-4c0-5.523-4.478-10-10-10s-10 4.477-10 10v4h-77.666v-4c0-5.523-4.478-10-10-10s-10 4.477-10 10v4h-84.334c-5.523 0-10 4.477-10 10v478c0 5.523 4.477 10 10 10h384c5.522 0 10-4.477 10-10v-138.131l103.177-178.709c9.895-17.138 4.001-39.13-13.136-49.024zm-10 17.32c7.587 4.38 10.196 14.117 5.816 21.704l-9.007 15.6-27.52-15.889 9.006-15.599c4.38-7.586 14.119-10.195 21.705-5.816zm-163.974 315.789-27.542 15.599v-31.449l150.805-261.202 27.52 15.889zm63.933-435.245v220.956l-24 41.569v-228.525c0-5.523-4.478-10-10-10h-40.333v-24zm-94.333 0v24h-77.667v-24zm-97.667 0v24h-77.666v-24zm-172 0h74.334v24h-40.334c-5.523 0-10 4.477-10 10v150c0 5.523 4.477 10 10 10 5.522 0 10-4.477 10-10v-140h30.334v4c0 5.523 4.478 10 10 10s10-4.477 10-10v-4h77.666v4c0 5.523 4.478 10 10 10s10-4.477 10-10v-4h77.667v4c0 5.523 4.478 10 10 10s10-4.477 10-10v-4h30.333v253.166l-66.135 114.549c-.417.721-.732 1.49-.956 2.285h-208.909v-140c0-5.523-4.478-10-10-10-5.523 0-10 4.477-10 10v150c0 5.523 4.477 10 10 10h218.525v24h-252.525zm364 458h-63.528l11.821-6.695c1.552-.879 2.841-2.157 3.732-3.701l47.975-83.094z"/><path id="XMLID_1050_" d="m54.006 273c2.64 0 5.21-1.07 7.08-2.93 1.859-1.86 2.92-4.44 2.92-7.07s-1.061-5.21-2.92-7.07c-1.87-1.86-4.441-2.93-7.08-2.93-2.63 0-5.2 1.07-7.07 2.93-1.86 1.86-2.93 4.44-2.93 7.07s1.069 5.21 2.93 7.07c1.87 1.86 4.44 2.93 7.07 2.93z"/></g></g></svg>