<svg id="Capa_1" enable-background="new 0 0 512 512" height="512" viewBox="0 0 512 512" width="512" xmlns="http://www.w3.org/2000/svg"><g id="XMLID_1160_"><path id="XMLID_1270_" d="m395.202 502h-331.202v-492h331.202c29.16 0 52.798 23.638 52.798 52.798v386.404c0 29.16-23.638 52.798-52.798 52.798z" fill="#80b4ff"/><circle id="XMLID_1269_" cx="256.127" cy="183.959" fill="#dfecff" r="104"/><path id="XMLID_1224_" d="m151.873 343.958h208.254v40h-208.254z" fill="#60a4ff"/><path id="XMLID_1325_" d="m151.873 343.958h208.254v40h-208.254z" fill="#ffcd69"/><g id="XMLID_287_"><path id="XMLID_288_" d="m395.202 0h-331.202c-5.523 0-10 4.477-10 10v492c0 5.523 4.477 10 10 10h331.202c34.627 0 62.798-28.171 62.798-62.798v-148.075c0-5.523-4.478-10-10-10s-10 4.477-10 10v148.075c0 23.599-19.199 42.798-42.798 42.798h-321.202v-472h321.202c23.599 0 42.798 19.199 42.798 42.798v148.329c0 5.523 4.478 10 10 10s10-4.477 10-10v-148.329c0-34.627-28.171-62.798-62.798-62.798z"/><path id="XMLID_948_" d="m256.127 69.959c-62.86 0-114 51.14-114 114s51.14 114 114 114c62.859 0 114-51.14 114-114s-51.141-114-114-114zm50.572 140.325c.857-8.524 1.301-17.348 1.301-26.325s-.444-17.801-1.301-26.325c27.419 6.579 43.428 17.735 43.428 26.325s-16.009 19.746-43.428 26.325zm-50.572 67.675c-8.59 0-19.746-16.009-26.325-43.428 8.524.857 17.348 1.301 26.325 1.301s17.801-.444 26.325-1.301c-6.579 27.419-17.735 43.428-26.325 43.428zm0-62.127c-10.781 0-20.828-.667-30.038-1.835-1.169-9.21-1.835-19.257-1.835-30.038s.667-20.828 1.835-30.038c9.21-1.169 19.257-1.835 30.038-1.835s20.828.667 30.038 1.835c1.168 9.21 1.835 19.257 1.835 30.038s-.667 20.828-1.835 30.038c-9.21 1.168-19.257 1.835-30.038 1.835zm-94-31.873c0-8.59 16.009-19.746 43.428-26.325-.857 8.524-1.301 17.348-1.301 26.325s.444 17.801 1.301 26.325c-27.419-6.579-43.428-17.735-43.428-26.325zm94-94c8.59 0 19.746 16.009 26.325 43.428-8.524-.857-17.348-1.301-26.325-1.301s-17.801.444-26.325 1.301c6.579-27.419 17.735-43.428 26.325-43.428zm87.593 59.891c-3.173-1.69-6.616-3.285-10.319-4.776-8.859-3.567-18.931-6.444-29.809-8.58-2.136-10.878-5.014-20.949-8.581-29.808-1.491-3.703-3.086-7.146-4.776-10.319 24.44 9.548 43.935 29.044 53.485 53.483zm-121.702-53.484c-1.69 3.174-3.286 6.616-4.777 10.319-3.567 8.859-6.444 18.931-8.58 29.808-10.878 2.136-20.949 5.013-29.808 8.58-3.703 1.491-7.145 3.086-10.319 4.777 9.55-24.439 29.045-43.934 53.484-53.484zm-53.484 121.702c3.174 1.69 6.616 3.286 10.319 4.776 8.859 3.567 18.931 6.444 29.808 8.58 2.136 10.878 5.013 20.949 8.58 29.808 1.491 3.703 3.086 7.145 4.777 10.319-24.439-9.549-43.934-29.044-53.484-53.483zm121.701 53.484c1.69-3.173 3.285-6.616 4.776-10.319 3.567-8.859 6.444-18.931 8.581-29.808 10.878-2.136 20.949-5.014 29.809-8.58 3.703-1.491 7.145-3.086 10.319-4.776-9.55 24.438-29.045 43.934-53.485 53.483z"/><path id="XMLID_1021_" d="m370.127 383.957v-40c0-5.523-4.478-10-10-10h-208.254c-5.523 0-10 4.477-10 10v40c0 5.523 4.477 10 10 10h208.254c5.522 0 10-4.477 10-10zm-20-10h-188.254v-20h188.254z"/><path id="XMLID_1022_" d="m185.754 422.041c-5.523 0-10 4.477-10 10s4.477 10 10 10h140.746c5.522 0 10-4.477 10-10s-4.478-10-10-10z"/><path id="XMLID_1024_" d="m448 246.13c-2.63 0-5.21 1.06-7.07 2.93-1.86 1.86-2.93 4.44-2.93 7.07s1.069 5.21 2.93 7.07c1.86 1.86 4.44 2.93 7.07 2.93s5.21-1.07 7.069-2.93c1.86-1.86 2.931-4.44 2.931-7.07s-1.07-5.21-2.931-7.07c-1.859-1.87-4.439-2.93-7.069-2.93z"/></g></g></svg>