<svg id="Capa_1" enable-background="new 0 0 512 512" height="512" viewBox="0 0 512 512" width="512" xmlns="http://www.w3.org/2000/svg"><g id="XMLID_994_"><path id="XMLID_986_" d="m462 128h-412c-22.091 0-40 17.909-40 40v240c0 22.091 17.909 40 40 40h412c22.091 0 40-17.909 40-40v-240c0-22.091-17.909-40-40-40z" fill="#fff"/><path id="XMLID_987_" d="m499.1 400h-123.765-213.861-144.474v-184h144.474 213.861 123.765z" fill="#a7bcce"/><path id="XMLID_993_" d="m131 267h-39.333c-7.732 0-14 6.268-14 14v54c0 7.732 6.268 14 14 14h39.333z" fill="#c3d3dd"/><circle id="XMLID_985_" cx="267" cy="308" fill="#a0c8ff" r="140"/><circle id="XMLID_983_" cx="267" cy="308" fill="#dfecff" r="89.5"/><path id="XMLID_981_" d="m64 84h48v44h-48z" fill="#ff7b79"/><path id="XMLID_980_" d="m368 128-19.167-64h-163.666l-19.167 64z" fill="#a7bcce"/><g id="XMLID_1911_"><path id="XMLID_1916_" d="m267 208.5c-54.864 0-99.5 44.636-99.5 99.5s44.636 99.5 99.5 99.5 99.5-44.636 99.5-99.5-44.636-99.5-99.5-99.5zm0 179c-43.837 0-79.5-35.664-79.5-79.5s35.663-79.5 79.5-79.5 79.5 35.664 79.5 79.5-35.663 79.5-79.5 79.5z"/><path id="XMLID_1918_" d="m267 339.75c-17.507 0-31.75-14.243-31.75-31.75 0-5.523-4.477-10-10-10s-10 4.477-10 10c0 28.535 23.215 51.75 51.75 51.75 5.522 0 10-4.477 10-10s-4.478-10-10-10z"/><path id="XMLID_1920_" d="m267 256.25c-5.522 0-10 4.477-10 10s4.478 10 10 10c17.507 0 31.75 14.243 31.75 31.75 0 5.523 4.478 10 10 10s10-4.477 10-10c0-28.535-23.215-51.75-51.75-51.75z"/><path id="XMLID_1923_" d="m462 118h-86.555l-17.032-56.869c-1.268-4.232-5.162-7.131-9.58-7.131h-163.666c-4.418 0-8.312 2.899-9.58 7.131l-17.032 56.869h-36.555v-34c0-5.523-4.478-10-10-10h-48c-5.522 0-10 4.477-10 10v34h-4c-27.57 0-50 22.43-50 50v240c0 27.57 22.43 50 50 50h412c27.57 0 50-22.43 50-50v-240c0-27.57-22.43-50-50-50zm-69.324 272c6.868-10.539 12.487-22.064 16.614-34.408 1.751-5.238-1.076-10.904-6.313-12.655-5.243-1.753-10.904 1.077-12.655 6.313-17.748 53.085-67.306 88.75-123.322 88.75-71.683 0-130-58.318-130-130s58.317-130 130-130c56.015 0 105.573 35.665 123.321 88.749 1.752 5.237 7.417 8.065 12.655 6.313 5.238-1.751 8.064-7.417 6.313-12.655-4.127-12.343-9.747-23.869-16.615-34.407h99.326v164zm-372.676-164h121.461c-6.309 9.626-11.545 20.014-15.529 31h-34.265c-13.233 0-24 10.766-24 24v54c0 13.234 10.767 24 24 24h34.266c3.984 10.986 9.22 21.374 15.529 31h-121.462zm100.229 113h-28.562c-2.206 0-4-1.794-4-4v-54c0-2.206 1.794-4 4-4h28.562c-2.111 10.007-3.229 20.375-3.229 31s1.118 20.993 3.229 31zm72.382-265h148.777l13.177 44h-175.131zm-118.611 20h28v24h-28zm-24 44h412c16.542 0 30 13.458 30 30v38h-114.933c-27.77-29.961-67.285-48-110.067-48-43.353 0-82.462 18.495-109.873 48h-137.127v-38c0-16.542 13.458-30 30-30zm0 300c-15.869 0-28.892-12.388-29.926-28h137.053c10.208 10.988 22.033 20.454 35.103 28zm412 0h-120.066c13.028-7.503 24.881-16.939 35.133-28h114.858c-1.033 15.612-14.056 28-29.925 28z"/><path id="XMLID_1932_" d="m414.069 300.93c-1.859-1.86-4.439-2.93-7.069-2.93s-5.21 1.07-7.07 2.93-2.93 4.44-2.93 7.07 1.069 5.21 2.93 7.07c1.86 1.86 4.44 2.93 7.07 2.93s5.21-1.07 7.069-2.93c1.86-1.86 2.931-4.44 2.931-7.07s-1.07-5.21-2.931-7.07z"/></g></g></svg>