<svg id="Capa_1" enable-background="new 0 0 512 512" height="512" viewBox="0 0 512 512" width="512" xmlns="http://www.w3.org/2000/svg"><g id="XMLID_1308_"><g id="XMLID_775_"><path id="XMLID_1079_" d="m196.836 268.288 23.564 33.992c5.804 8.373 15.344 13.368 25.532 13.368 12.215 0 23.297-7.158 28.319-18.293l78.045-173.018c11.994-26.589 38.455-43.682 67.624-43.682 18.024 0 35.357 6.939 48.401 19.378l33.679 32.114-29.793 30.207-30.225-24.271c-4.515-3.626-10.133-5.602-15.923-5.602h-.357c-11.478 0-21.632 7.311-25.256 18.154-11.026 32.995-35.233 105.414-57.002 170.54-25.352 75.844-96.36 126.973-176.329 126.973h-52.281z" fill="#c68a65"/></g><g id="XMLID_1196_"><path id="XMLID_1078_" d="m468.321 100.032 33.679 32.115-29.793 30.207-30.225-24.272z" fill="#ffcd69"/></g><g id="XMLID_1198_"><path id="XMLID_6_" d="m352.296 124.336c11.994-26.589 38.455-43.682 67.624-43.682 18.024 0 35.357 6.939 48.401 19.378l-26.339 38.051c-4.515-3.626-10.133-5.602-15.923-5.602h-.357c-11.478 0-21.632 7.311-25.256 18.154z" fill="#a7bcce"/></g><g id="XMLID_1389_"><path id="XMLID_1077_" d="m36.01 263.356c-16.19 24.098-26.01 53.481-26.01 79.958 0 57.898 46.935 104.833 104.833 104.833s104.833-46.936 104.833-104.833c0-26.477-9.82-55.86-26.01-79.958z" fill="#c68a65"/></g><g id="XMLID_1197_"><path id="XMLID_401_" d="m212.734 302.446c-4.479-13.669-10.982-27.04-19.078-39.09h-157.646c-8.096 12.05-14.599 25.421-19.078 39.09z" fill="#fff3da"/></g><g id="XMLID_1080_"><path id="XMLID_1086_" d="m508.901 124.91-33.679-32.115c-14.972-14.278-34.612-22.141-55.302-22.141-33.034 0-63.156 19.457-76.739 49.57l-78.044 173.018c-3.399 7.536-10.938 12.405-19.205 12.405-6.906 0-13.379-3.389-17.314-9.065l-23.412-33.772c-1.053-1.695-2.136-3.373-3.25-5.03-1.857-2.765-4.97-4.423-8.3-4.423h-157.646c-3.331 0-6.443 1.658-8.301 4.423-17.609 26.21-27.709 57.386-27.709 85.534 0 63.319 51.514 114.833 114.834 114.833h52.281c33.184 0 66.043-8.5 95.025-24.582 28.595-15.867 52.949-38.822 70.429-66.383 2.958-4.664 1.575-10.843-3.089-13.801-4.664-2.959-10.843-1.575-13.8 3.089-30.044 47.371-79.911 77.04-135.25 81.162 12.335-8.597 23.058-19.678 31.428-32.869 2.959-4.663 1.578-10.842-3.085-13.801s-10.843-1.579-13.801 3.086c-17.523 27.613-47.481 44.099-80.137 44.099-52.293 0-94.835-42.542-94.835-94.833 0-9.841 1.541-20.34 4.412-30.867h180.842c2.871 10.528 4.412 21.026 4.412 30.867 0 5.523 4.477 10 10 10s10-4.477 10-10c0-7.159-.657-14.515-1.921-21.934 5.579 2.758 11.783 4.268 18.186 4.268 16.114 0 30.808-9.492 37.435-24.181l73.607-163.181 31.335 17.115c-9.157 27.4-24.385 72.961-40.085 119.926-1.751 5.238 1.076 10.904 6.314 12.654 5.24 1.755 10.903-1.076 12.654-6.314 17.331-51.846 34.088-101.982 42.736-127.862 2.264-6.773 8.602-11.324 15.772-11.324 3.732 0 7.39 1.287 10.298 3.622l29.946 24.048c4.001 3.211 9.781 2.876 13.381-.775l29.794-30.207c1.883-1.909 2.92-4.494 2.879-7.175-.039-2.681-1.155-5.234-3.096-7.084zm-477.411 167.536c2.858-6.567 6.186-12.988 9.966-19.09h146.754c3.78 6.102 7.108 12.523 9.966 19.09zm364.946-155.396-30.626-16.727c11.669-18.272 32.036-29.669 54.11-29.669 12.675 0 24.823 3.936 34.971 11.21l-15.993 23.104c-4.186-1.626-8.666-2.487-13.197-2.487-11.748 0-22.482 5.564-29.265 14.569zm74.992 11.853-15.922-12.786 14.38-20.775 17.852 17.024z"/><path id="XMLID_1121_" d="m138.72 154.577c0 8.753-3.409 16.981-9.598 23.17-3.905 3.905-3.906 10.237-.001 14.142 1.953 1.953 4.512 2.929 7.071 2.929s5.119-.977 7.071-2.929c9.967-9.966 15.456-23.218 15.456-37.312 0-14.095-5.489-27.346-15.455-37.313-12.776-12.776-12.776-33.564 0-46.34 3.905-3.905 3.905-10.237-.001-14.142-3.905-3.905-10.237-3.905-14.142 0-20.573 20.574-20.573 54.051.001 74.625 6.189 6.189 9.598 14.418 9.598 23.17z"/><path id="XMLID_1143_" d="m80.623 212.041c-3.905 3.905-3.905 10.237 0 14.143 1.953 1.953 4.512 2.929 7.071 2.929s5.119-.976 7.071-2.929c16.964-16.964 16.964-44.566-.001-61.531-4.44-4.44-6.885-10.343-6.885-16.622s2.445-12.183 6.885-16.623c3.905-3.905 3.906-10.237.001-14.142-3.906-3.906-10.237-3.905-14.142 0-8.218 8.218-12.744 19.144-12.744 30.765s4.526 22.547 12.743 30.765c9.167 9.164 9.167 24.079.001 33.245z"/><path id="XMLID_1144_" d="m343.44 311.17c-2.63 0-5.21 1.07-7.069 2.93-1.86 1.86-2.931 4.44-2.931 7.07 0 2.64 1.07 5.21 2.931 7.07 1.859 1.87 4.44 2.93 7.069 2.93 2.641 0 5.21-1.06 7.07-2.93 1.87-1.86 2.93-4.44 2.93-7.07s-1.06-5.2-2.93-7.07c-1.861-1.86-4.43-2.93-7.07-2.93z"/></g></g></svg>