<svg id="Capa_1" enable-background="new 0 0 512 512" height="512" viewBox="0 0 512 512" width="512" xmlns="http://www.w3.org/2000/svg"><g id="XMLID_1095_"><path id="XMLID_1094_" d="m394 60h44v64h-44z" fill="#a7bcce"/><path id="XMLID_1093_" d="m394 172h44v48h-44z" fill="#a7bcce"/><path id="XMLID_1092_" d="m394 268h44v48h-44z" fill="#ff7b79"/><path id="XMLID_1061_" d="m354 502h-240c-22.091 0-40-17.909-40-40v-412c0-22.091 17.909-40 40-40h240c22.091 0 40 17.909 40 40v412c0 22.091-17.909 40-40 40z" fill="#a7bcce"/><path id="XMLID_1060_" d="m118 54h232v262h-232z" fill="#a0c8ff"/><circle id="XMLID_1059_" cx="234" cy="185" fill="#fff" r="64"/><circle id="XMLID_19_" cx="234" cy="185" fill="#ff7b79" r="22"/><g id="XMLID_1375_"><path id="XMLID_1440_" d="m234 259c40.804 0 74-33.196 74-74s-33.196-74-74-74-74 33.196-74 74 33.196 74 74 74zm0-128c29.776 0 54 24.224 54 54s-24.224 54-54 54-54-24.224-54-54 24.224-54 54-54z"/><path id="XMLID_1634_" d="m234 217c17.645 0 32-14.355 32-32s-14.355-32-32-32-32 14.355-32 32 14.355 32 32 32zm0-44c6.617 0 12 5.383 12 12s-5.383 12-12 12-12-5.383-12-12 5.383-12 12-12z"/><path id="XMLID_1661_" d="m322 438c-2.63 0-5.21 1.07-7.07 2.93s-2.93 4.44-2.93 7.07 1.07 5.21 2.93 7.07 4.44 2.93 7.07 2.93 5.21-1.07 7.07-2.93 2.93-4.44 2.93-7.07-1.07-5.21-2.93-7.07-4.44-2.93-7.07-2.93z"/><path id="XMLID_1663_" d="m329.07 396.93c-1.86-1.86-4.44-2.93-7.07-2.93s-5.21 1.07-7.07 2.93-2.93 4.44-2.93 7.07 1.07 5.21 2.93 7.07 4.44 2.93 7.07 2.93 5.21-1.07 7.07-2.93 2.93-4.44 2.93-7.07-1.07-5.21-2.93-7.07z"/><path id="XMLID_1664_" d="m329.07 352.93c-1.86-1.86-4.44-2.93-7.07-2.93s-5.21 1.07-7.07 2.93-2.93 4.44-2.93 7.07 1.07 5.21 2.93 7.07 4.44 2.93 7.07 2.93 5.21-1.07 7.07-2.93 2.93-4.44 2.93-7.07-1.07-5.21-2.93-7.07z"/><path id="XMLID_1665_" d="m278 438c-2.63 0-5.21 1.07-7.07 2.93s-2.93 4.44-2.93 7.07 1.07 5.21 2.93 7.07 4.44 2.93 7.07 2.93 5.21-1.07 7.07-2.93 2.93-4.44 2.93-7.07-1.07-5.21-2.93-7.07-4.44-2.93-7.07-2.93z"/><path id="XMLID_1666_" d="m285.07 396.93c-1.86-1.86-4.44-2.93-7.07-2.93s-5.21 1.07-7.07 2.93-2.93 4.44-2.93 7.07 1.07 5.21 2.93 7.07 4.44 2.93 7.07 2.93 5.21-1.07 7.07-2.93 2.93-4.44 2.93-7.07-1.07-5.21-2.93-7.07z"/><path id="XMLID_1693_" d="m285.07 352.93c-1.86-1.86-4.44-2.93-7.07-2.93s-5.21 1.07-7.07 2.93-2.93 4.44-2.93 7.07 1.07 5.21 2.93 7.07 4.44 2.93 7.07 2.93 5.21-1.07 7.07-2.93 2.93-4.44 2.93-7.07-1.07-5.21-2.93-7.07z"/><path id="XMLID_1933_" d="m234 438c-2.63 0-5.21 1.07-7.07 2.93s-2.93 4.44-2.93 7.07 1.07 5.21 2.93 7.07 4.44 2.93 7.07 2.93 5.21-1.07 7.07-2.93 2.93-4.44 2.93-7.07-1.07-5.21-2.93-7.07-4.44-2.93-7.07-2.93z"/><path id="XMLID_1936_" d="m241.07 396.93c-1.86-1.86-4.44-2.93-7.07-2.93s-5.21 1.07-7.07 2.93-2.93 4.44-2.93 7.07 1.07 5.21 2.93 7.07 4.44 2.93 7.07 2.93 5.21-1.07 7.07-2.93 2.93-4.44 2.93-7.07-1.07-5.21-2.93-7.07z"/><path id="XMLID_1937_" d="m241.07 352.93c-1.86-1.86-4.44-2.93-7.07-2.93s-5.21 1.07-7.07 2.93-2.93 4.44-2.93 7.07 1.07 5.21 2.93 7.07 4.44 2.93 7.07 2.93 5.21-1.07 7.07-2.93 2.93-4.44 2.93-7.07-1.07-5.21-2.93-7.07z"/><path id="XMLID_1938_" d="m190 438c-2.63 0-5.21 1.07-7.07 2.93s-2.93 4.44-2.93 7.07 1.07 5.21 2.93 7.07 4.44 2.93 7.07 2.93 5.21-1.07 7.07-2.93 2.93-4.44 2.93-7.07-1.07-5.21-2.93-7.07-4.44-2.93-7.07-2.93z"/><path id="XMLID_1939_" d="m197.07 396.93c-1.86-1.86-4.44-2.93-7.07-2.93s-5.21 1.07-7.07 2.93-2.93 4.44-2.93 7.07 1.07 5.21 2.93 7.07 4.44 2.93 7.07 2.93 5.21-1.07 7.07-2.93 2.93-4.44 2.93-7.07-1.07-5.21-2.93-7.07z"/><path id="XMLID_1940_" d="m197.07 352.93c-1.86-1.86-4.44-2.93-7.07-2.93s-5.21 1.07-7.07 2.93-2.93 4.44-2.93 7.07 1.07 5.21 2.93 7.07 4.44 2.93 7.07 2.93 5.21-1.07 7.07-2.93 2.93-4.44 2.93-7.07-1.07-5.21-2.93-7.07z"/><path id="XMLID_1941_" d="m146 438c-2.63 0-5.21 1.07-7.07 2.93s-2.93 4.44-2.93 7.07 1.07 5.21 2.93 7.07 4.44 2.93 7.07 2.93 5.21-1.07 7.07-2.93 2.93-4.44 2.93-7.07-1.07-5.21-2.93-7.07-4.44-2.93-7.07-2.93z"/><path id="XMLID_1942_" d="m153.07 396.93c-1.86-1.86-4.44-2.93-7.07-2.93s-5.21 1.07-7.07 2.93-2.93 4.44-2.93 7.07 1.07 5.21 2.93 7.07 4.44 2.93 7.07 2.93 5.21-1.07 7.07-2.93 2.93-4.44 2.93-7.07-1.07-5.21-2.93-7.07z"/><path id="XMLID_1943_" d="m153.07 352.93c-1.86-1.86-4.44-2.93-7.07-2.93s-5.21 1.07-7.07 2.93-2.93 4.44-2.93 7.07 1.07 5.21 2.93 7.07 4.44 2.93 7.07 2.93 5.21-1.07 7.07-2.93 2.93-4.44 2.93-7.07-1.07-5.21-2.93-7.07z"/><path id="XMLID_1974_" d="m360 316v-262c0-5.523-4.477-10-10-10h-232c-5.523 0-10 4.477-10 10v262c0 5.523 4.477 10 10 10h232c5.523 0 10-4.477 10-10zm-20-10h-212v-242h212z"/><path id="XMLID_1979_" d="m438 134c5.523 0 10-4.477 10-10v-64c0-5.523-4.477-10-10-10h-34c0-27.57-22.43-50-50-50h-240c-27.57 0-50 22.43-50 50v90.001c0 5.523 4.477 10 10 10s10-4.477 10-10v-90.001c0-16.542 13.458-30 30-30h240c16.542 0 30 13.458 30 30v412c0 16.542-13.458 30-30 30h-240c-16.542 0-30-13.458-30-30v-232.001c0-5.523-4.477-10-10-10s-10 4.477-10 10v232.001c0 27.57 22.43 50 50 50h240c27.57 0 50-22.43 50-50v-136h34c5.523 0 10-4.477 10-10v-48c0-5.523-4.477-10-10-10h-34v-28h34c5.523 0 10-4.477 10-10v-48c0-5.523-4.477-10-10-10h-34v-28zm-10-64v44h-24v-44zm0 208v28h-24v-28zm0-96v28h-24v-28z"/><path id="XMLID_1982_" d="m74 195c2.63 0 5.21-1.07 7.07-2.93s2.93-4.44 2.93-7.07-1.07-5.21-2.93-7.07-4.44-2.93-7.07-2.93-5.21 1.07-7.07 2.93-2.93 4.44-2.93 7.07 1.07 5.21 2.93 7.07 4.44 2.93 7.07 2.93z"/></g></g></svg>