<svg height="512pt" viewBox="0 0 512 512.00038" width="512pt" xmlns="http://www.w3.org/2000/svg" xmlns:xlink="http://www.w3.org/1999/xlink"><linearGradient id="a" gradientUnits="userSpaceOnUse" x1="169.9940010834" x2="299.4934135904" y1="71.98622701" y2="349.0548448864"><stop offset="0" stop-color="#ff4500"/><stop offset="1" stop-color="#dd3400"/></linearGradient><linearGradient id="b"><stop offset="0" stop-color="#dd3400" stop-opacity="0"/><stop offset="1" stop-color="#bf2800"/></linearGradient><linearGradient id="c" gradientUnits="userSpaceOnUse" x1="364.2825237824" x2="-379.5864327114" xlink:href="#b" y1="314.0868361356" y2="-84.9521808166"/><linearGradient id="d" gradientUnits="userSpaceOnUse" x1="256.0003" x2="256.0003" xlink:href="#b" y1="441.72568" y2="500.0914964516"/><linearGradient id="e" gradientUnits="userSpaceOnUse" x1="502.5684624178" x2="237.5330544178" xlink:href="#b" y1="486.6876318686" y2="215.6286918686"/><path d="m420.421875 503.234375c-109.503906 11.6875-219.339844 11.6875-328.84375 0-43.664063-4.660156-78.152344-39.148437-82.8125-82.816406-11.6875-109.503907-11.6875-219.335938 0-328.839844 4.660156-43.664063 39.148437-78.152344 82.8125-82.8125 109.503906-11.6875 219.335937-11.6875 328.839844 0 43.667969 4.660156 78.15625 39.148437 82.816406 82.8125 11.6875 109.503906 11.6875 219.335937 0 328.839844-4.660156 43.667969-39.144531 78.15625-82.8125 82.816406zm0 0" fill="url(#a)"/><path d="m475.386719 110.097656c-4.132813-38.746094-34.734375-69.351562-73.484375-73.488281-97.171875-10.367187-194.632813-10.367187-291.804688 0-38.746094 4.136719-69.351562 34.742187-73.488281 73.488281-10.367187 97.171875-10.367187 194.632813 0 291.800782 4.136719 38.75 34.742187 69.355468 73.488281 73.488281 97.171875 10.371093 194.632813 10.371093 291.800782 0 38.75-4.132813 69.355468-34.738281 73.488281-73.488281 10.371093-97.167969 10.371093-194.628907 0-291.800782zm0 0" fill="url(#c)"/><path d="m7.671875 409.804688c.351563 3.539062.714844 7.078124 1.09375 10.617187 4.660156 43.664063 39.148437 78.152344 82.816406 82.8125 109.503907 11.6875 219.335938 11.6875 328.839844 0 43.667969-4.660156 78.152344-39.148437 82.8125-82.8125.378906-3.539063.742187-7.078125 1.097656-10.617187zm0 0" fill="url(#d)"/><path d="m420.421875 503.234375c43.667969-4.660156 78.152344-39.148437 82.8125-82.816406 6.691406-62.6875 9.542969-125.484375 8.574219-188.269531l-123.492188-123.488282c-5.433594-7.65625-14.722656-12.226562-24.71875-11.140625-8.460937.867188-16.054687 5.796875-20.253906 13.121094l-65.683594-13.121094c-4.460937-1-8.925781 1.796875-9.925781 6.328125v.132813l-19.785156 92.996093c-37.304688.601563-73.609375 12.058594-104.523438 32.976563-15.71875-14.789063-40.5-14.054687-55.289062 1.734375-14.789063 15.71875-14.058594 40.5 1.730469 55.289062.789062.738282 1.609374 1.449219 2.460937 2.128907 1.179687 1.480469 2.472656 2.898437 3.898437 4.230469.789063.738281 1.609376 1.449218 2.460938 2.125.492188.621093 1.011719 1.230468 1.550781 1.824218-.085937 2.847656-.039062 5.699219.152344 8.546875 0 24.464844 11.628906 47.074219 31.242187 65.273438l140.800782 140.800781c49.355468-.527344 98.703125-3.410156 147.988281-8.671875zm0 0" fill="url(#e)"/><path d="m434.476562 258.398438c-.796874-21.582032-18.917968-38.4375-40.566406-37.703126-9.59375.332032-18.71875 4.261719-25.648437 10.855469-30.511719-20.78125-66.351563-32.175781-103.191407-32.972656l17.386719-83.605469 57.359375 12.058594c1.597656 14.722656 14.789063 25.378906 29.511719 23.78125 14.722656-1.601562 25.378906-14.789062 23.78125-29.511719-1.601563-14.722656-14.789063-25.382812-29.511719-23.78125-8.460937.867188-16.054687 5.796875-20.253906 13.121094l-65.683594-13.121094c-4.460937-1-8.925781 1.796875-9.925781 6.328125v.132813l-19.785156 92.996093c-37.304688.601563-73.609375 12.058594-104.523438 32.976563-15.71875-14.789063-40.5-14.054687-55.289062 1.734375-14.789063 15.71875-14.058594 40.5 1.730469 55.289062 3.0625 2.867188 6.59375 5.332032 10.523437 7.0625-.265625 3.929688-.265625 7.859376 0 11.792969 0 60.019531 69.949219 108.851563 156.21875 108.851563s156.21875-48.765625 156.21875-108.851563c.265625-3.933593.265625-7.863281 0-11.792969 13.457031-6.726562 21.917969-20.582031 21.648437-35.640624zm-268 26.847656c0-14.789063 12.058594-26.847656 26.847657-26.847656 14.789062 0 26.847656 12.058593 26.847656 26.847656 0 14.789062-12.058594 26.847656-26.847656 26.847656-14.855469-.132812-26.847657-12.058594-26.847657-26.847656zm155.683594 73.679687c-19.050781 14.320313-42.367187 21.648438-66.214844 20.652344-23.851562.996094-47.167968-6.332031-66.21875-20.652344-2.53125-3.066406-2.066406-7.660156 1-10.195312 2.664063-2.195313 6.460938-2.195313 9.191407 0 16.121093 11.792969 35.773437 17.789062 55.757812 16.855469 19.984375 1.066406 39.707031-4.664063 56.027344-16.320313 2.929687-2.863281 7.726563-2.796875 10.589844.132813 2.867187 2.933593 2.800781 7.726562-.132813 10.59375zm-4.796875-45.898437c-14.789062 0-26.84375-12.058594-26.84375-26.847656 0-14.789063 12.054688-26.847657 26.84375-26.847657 14.789063 0 26.847657 12.058594 26.847657 26.847657.601562 14.789062-10.925782 27.246093-25.714844 27.84375-.464844 0-.863282 0-1.332032 0zm0 0" fill="#fff"/></svg>