<svg id="Capa_1" enable-background="new 0 0 512 512" height="512" viewBox="0 0 512 512" width="512" xmlns="http://www.w3.org/2000/svg"><g id="XMLID_2026_"><path id="XMLID_1997_" d="m462 448h-412c-22.091 0-40-17.909-40-40v-304c0-22.091 17.909-40 40-40h412c22.091 0 40 17.909 40 40v304c0 22.091-17.909 40-40 40z" fill="#c3d3dd"/><path id="XMLID_1995_" d="m70 156.088v-44.088h384v286.75h-384v-44.092z" fill="#fff"/><circle id="XMLID_1930_" cx="174" cy="256" fill="#b6bccf" r="60"/><circle id="XMLID_1467_" cx="174" cy="256" fill="#99c3ff" r="20"/><g id="XMLID_1844_" fill="#ffcd69"><path id="XMLID_1863_" d="m278 168h44v44h-44z"/><path id="XMLID_1862_" d="m322 168h44v44h-44z"/><path id="XMLID_1861_" d="m366 168h44v44h-44z"/><path id="XMLID_1860_" d="m278 212h44v44h-44z"/><path id="XMLID_1859_" d="m322 212h44v44h-44z"/><path id="XMLID_1858_" d="m366 212h44v44h-44z"/><path id="XMLID_1857_" d="m278 256h44v44h-44z"/><path id="XMLID_1856_" d="m322 256h44v44h-44z"/><path id="XMLID_1855_" d="m366 256h44v44h-44z"/><path id="XMLID_1853_" d="m278 300h44v44h-44z"/><path id="XMLID_1847_" d="m322 300h44v44h-44z"/><path id="XMLID_1845_" d="m366 300h44v44h-44z"/></g><g id="XMLID_1454_"><path id="XMLID_1455_" d="m80.333 200h-8.333c-12.15 0-22-9.85-22-22s9.85-22 22-22h8.333c12.15 0 22 9.85 22 22s-9.849 22-22 22z" fill="#c3d3dd"/></g><g id="XMLID_1493_"><path id="XMLID_1450_" d="m80.333 310.75h-8.333c-12.15 0-22 9.85-22 22s9.85 22 22 22h8.333c12.15 0 22-9.85 22-22s-9.849-22-22-22z" fill="#c3d3dd"/></g><g id="XMLID_774_"><path id="XMLID_861_" d="m462 54h-412c-27.57 0-50 22.43-50 50v304c0 27.57 22.43 50 50 50h412c27.57 0 50-22.43 50-50v-304c0-27.57-22.43-50-50-50zm30 354c0 16.542-13.458 30-30 30h-412c-16.542 0-30-13.458-30-30v-304c0-16.542 13.458-30 30-30h412c16.542 0 30 13.458 30 30z"/><path id="XMLID_1177_" d="m268 168v176c0 5.522 4.478 10 10 10h132c5.522 0 10-4.478 10-10v-176c0-5.523-4.478-10-10-10h-132c-5.522 0-10 4.477-10 10zm20 98h24v24h-24zm44 0h24v24h-24zm44 0h24v24h-24zm24-20h-24v-24h24zm-44 0h-24v-24h24zm-44 0h-24v-24h24zm-24 64h24v24h-24zm44 0h24v24h-24zm68 24h-24v-24h24zm0-132h-24v-24h24zm-44 0h-24v-24h24zm-68-24h24v24h-24z"/><path id="XMLID_1202_" d="m174 186c-38.598 0-70 31.402-70 70s31.402 70 70 70 70-31.402 70-70-31.402-70-70-70zm48.994 60h-20.714c-3.018-8.509-9.771-15.262-18.28-18.28v-20.714c19.562 3.987 35.007 19.432 38.994 38.994zm-48.994 20c-5.514 0-10-4.486-10-10s4.486-10 10-10 10 4.486 10 10-4.486 10-10 10zm-10-58.994v20.714c-8.509 3.018-15.262 9.771-18.28 18.28h-20.714c3.987-19.562 19.432-35.007 38.994-38.994zm-38.994 58.994h20.714c3.018 8.509 9.771 15.262 18.28 18.28v20.714c-19.562-3.987-35.007-19.432-38.994-38.994zm58.994 38.994v-20.714c8.509-3.018 15.262-9.77 18.28-18.28h20.714c-3.987 19.562-19.432 35.007-38.994 38.994z"/><path id="XMLID_1232_" d="m454 102h-147c-5.522 0-10 4.478-10 10s4.478 10 10 10h137v266.75h-364v-24h.334c17.645 0 32-14.355 32-32s-14.355-32-32-32h-.334v-90.75h.334c17.645 0 32-14.355 32-32s-14.355-32-32-32h-.334v-24h136.999c5.523 0 10-4.478 10-10s-4.477-10-10-10h-146.999c-5.523 0-10 4.478-10 10v36.343c-11.715 4.758-20 16.255-20 29.657s8.285 24.899 20 29.657v95.437c-11.715 4.758-20 16.255-20 29.657s8.285 24.899 20 29.657v36.343c0 5.522 4.477 10 10 10h384c5.522 0 10-4.478 10-10v-286.751c0-5.522-4.478-10-10-10zm-382 64h8.334c6.617 0 12 5.383 12 12s-5.383 12-12 12h-8.334c-6.617 0-12-5.383-12-12s5.383-12 12-12zm0 154.75h8.334c6.617 0 12 5.383 12 12s-5.383 12-12 12h-8.334c-6.617 0-12-5.383-12-12s5.383-12 12-12z"/><path id="XMLID_1234_" d="m262 122c2.63 0 5.21-1.07 7.069-2.931 1.861-1.859 2.931-4.439 2.931-7.069s-1.07-5.21-2.931-7.07c-1.859-1.86-4.439-2.93-7.069-2.93s-5.21 1.069-7.07 2.93c-1.86 1.86-2.93 4.44-2.93 7.07s1.07 5.21 2.93 7.069c1.86 1.861 4.44 2.931 7.07 2.931z"/></g></g></svg>