<svg id="Capa_1" enable-background="new 0 0 512 512" height="512" viewBox="0 0 512 512" width="512" xmlns="http://www.w3.org/2000/svg"><g><path id="XMLID_1594_" d="m502 149v-112h-118.914l-56 56h-181.086l56 56z" fill="#ffcd69"/><path id="XMLID_1552_" d="m502 149h-300l-56-56h-136v382h492z" fill="#ffda8f"/><g id="XMLID_485_"><path id="XMLID_1015_" d="m349.42 139c-2.63 0-5.21 1.07-7.07 2.93-1.859 1.86-2.93 4.44-2.93 7.07s1.07 5.21 2.93 7.07 4.44 2.93 7.07 2.93 5.21-1.07 7.07-2.93c1.859-1.86 2.93-4.44 2.93-7.07s-1.07-5.21-2.93-7.07-4.44-2.93-7.07-2.93z"/></g><path d="m502 27h-118.914c-2.652 0-5.195 1.054-7.071 2.929l-53.072 53.071h-312.943c-5.523 0-10 4.477-10 10v382c0 5.523 4.477 10 10 10h492c5.522 0 10-4.477 10-10v-438c0-5.523-4.478-10-10-10zm-10 112h-97.582c-5.522 0-10 4.477-10 10s4.478 10 10 10h97.582v110.886 6.229 188.885h-472v-362h121.858l53.071 53.071c1.875 1.875 4.419 2.929 7.071 2.929h102.418c5.522 0 10-4.477 10-10s-4.478-10-10-10h-98.276l-36-36h156.944c2.652 0 5.195-1.054 7.071-2.929l53.072-53.071h104.771z"/><path d="m158.37 287.067c5.522 0 10-4.477 10-10s-4.478-10-10-10h-25.431c-5.522 0-10 4.477-10 10v70.198c0 5.522 4.478 10 10 10h25.431c5.522 0 10-4.478 10-10s-4.478-10-10-10h-15.431v-15.099h13.556c5.522 0 10-4.478 10-10s-4.478-10-10-10h-13.556v-15.099z"/><path d="m363.402 267.067c-5.522 0-10 4.477-10 10v70.198c0 5.522 4.478 10 10 10h26.567c5.522 0 10-4.478 10-10s-4.478-10-10-10h-16.567v-15.099h14.608c5.522 0 10-4.478 10-10s-4.478-10-10-10h-14.608v-15.099h16.567c5.522 0 10-4.477 10-10s-4.478-10-10-10z"/><path d="m258.87 329.931c-4.229-3.551-10.536-3.002-14.089 1.228-.587.698-1.215 1.348-1.867 1.929-3.354 2.986-7.657 4.501-12.791 4.501-14.018 0-25.422-11.404-25.422-25.422s11.404-25.422 25.422-25.422c5.096 0 10.009 1.5 14.208 4.336 4.577 3.09 10.793 1.889 13.885-2.689 3.091-4.577 1.887-10.793-2.689-13.884-7.519-5.079-16.303-7.763-25.403-7.763-25.046 0-45.422 20.376-45.422 45.422s20.376 45.422 45.422 45.422c10.043 0 19.065-3.308 26.092-9.565 1.371-1.221 2.677-2.567 3.883-4.003 3.55-4.23 3.001-10.538-1.229-14.09z"/><path d="m84.577 303.343c-8.507-3.139-16.441-6.552-19.078-7.704-1.309-1.132-1.329-2.625-1.209-3.464.148-1.033.916-3.563 4.833-4.743 9.354-2.818 18.141 4.058 18.442 4.298 4.226 3.5 10.492 2.94 14.031-1.27 3.554-4.228 3.007-10.536-1.221-14.089-.688-.579-17.078-14.096-37.022-8.09-10.211 3.076-17.438 11.143-18.86 21.052-1.339 9.324 2.704 18.295 10.552 23.411.441.288.905.541 1.387.756.412.184 10.202 4.541 21.224 8.606 2.213.816 9.369 3.832 8.559 8.37-.61 3.42-5.085 7.111-11.249 7.111-6.724 0-13.183-2.697-17.277-7.216-3.71-4.094-10.033-4.403-14.125-.695-4.093 3.709-4.403 10.033-.695 14.125 7.94 8.762 19.639 13.786 32.098 13.786 15.485 0 28.496-9.924 30.938-23.597 1.842-10.331-2.791-23.81-21.328-30.647z"/><path d="m426.3 286.744h7.64v60.844c0 5.522 4.478 10 10 10s10-4.478 10-10v-60.844h7.782c5.522 0 10-4.477 10-10s-4.478-10-10-10h-35.422c-5.522 0-10 4.477-10 10s4.477 10 10 10z"/><path d="m337.072 295.156c0-15.666-13.213-28.412-29.454-28.412h-18.825c-.004 0-.008 0-.012 0s-.008 0-.012 0c-5.522 0-10 4.477-10 10v70.844c0 5.522 4.478 10 10 10s10-4.478 10-10v-17.021l20.796 23.628c1.977 2.246 4.736 3.394 7.511 3.394 2.347 0 4.703-.821 6.603-2.493 4.146-3.649 4.549-9.968.9-14.113l-16.846-19.14c11.274-3.99 19.339-14.447 19.339-26.687zm-29.454-8.412c5.125 0 9.454 3.852 9.454 8.412s-4.329 8.412-9.454 8.412c-2.073 0-5.438.013-8.75.028-.016-3.211-.028-6.449-.028-8.44 0-1.703-.008-5.04-.017-8.412z"/></g></svg>