<svg id="Capa_1" enable-background="new 0 0 512 512" height="512" viewBox="0 0 512 512" width="512" xmlns="http://www.w3.org/2000/svg"><g id="XMLID_491_"><g id="XMLID_1832_"><path id="XMLID_137_" d="m454 482h-396c-26.51 0-48-21.49-48-48v-259.917c0-26.51 21.49-48 48-48h396c26.51 0 48 21.49 48 48v259.917c0 26.51-21.49 48-48 48z" fill="#c68a65"/></g><g id="XMLID_1835_"><path d="m294.127 301.667v24.333c0 20.987-17.013 38-38 38-20.987 0-38-17.013-38-38v-24.333z" fill="#c3d3dd"/></g><g id="XMLID_1836_"><path id="XMLID_136_" d="m105.81 301.667h300.38c52.835 0 95.667-42.831 95.667-95.667v-37.126c-2.597-24.059-22.965-42.791-47.714-42.791h-396c-26.51 0-48 21.49-48 48v31.917c0 52.835 42.831 95.667 95.667 95.667z" fill="#d1a184"/></g><g id="XMLID_1721_"><path d="m380 126.083h-248v-48.083c0-26.51 21.49-48 48-48h152c26.51 0 48 21.49 48 48z" fill="#fff"/></g><g id="XMLID_1756_"><path id="XMLID_4_" d="m332 30h-152c-26.51 0-48 21.49-48 48h248c0-26.51-21.49-48-48-48z" fill="#a7bcce"/></g><g id="XMLID_1722_"><path id="XMLID_120_" d="m256.127 364c-20.987 0-38-17.013-38-38v-55.564c0-7.053 5.717-12.77 12.77-12.77h50.46c7.053 0 12.77 5.717 12.77 12.77v55.564c0 20.987-17.013 38-38 38z" fill="#e6e6f9"/></g><g id="XMLID_1833_"><path d="m218.127 301.667v-31.23c0-7.053 5.717-12.77 12.77-12.77h50.46c7.053 0 12.77 5.717 12.77 12.77v31.23z" fill="#a7bcce"/></g><g id="XMLID_138_"><path id="XMLID_141_" d="m454 116.083h-64v-38.083c0-31.981-26.019-58-58-58h-152c-31.981 0-58 26.019-58 58v38.083h-64c-31.981 0-58 26.019-58 58v259.917c0 31.981 26.019 58 58 58h396c31.981 0 58-26.019 58-58v-259.917c0-31.981-26.019-58-58-58zm-274-76.083h152c17.492 0 32.253 11.884 36.655 28h-225.31c4.402-16.116 19.163-28 36.655-28zm-160 134.083c0-20.953 17.047-38 38-38h153.127c5.522 0 10-4.477 10-10s-4.478-10-10-10h-69.127v-28.083h228v28.083h-68.873c-5.523 0-10 4.478-10 10s4.477 10 10 10h152.873c20.953 0 38 17.047 38 38v31.89c0 47.267-38.455 85.722-85.723 85.722h-102.15v-21.258c0-12.555-10.215-22.769-22.77-22.769h-50.461c-12.555 0-22.77 10.215-22.77 22.769v21.258h-102.403c-47.268-.001-85.723-38.456-85.723-85.722zm208.127 137.611h56v14.306c0 15.44-12.561 28-28 28-15.44 0-28-12.56-28-28zm0-20v-21.258c0-1.527 1.242-2.77 2.77-2.77h50.461c1.527 0 2.77 1.242 2.77 2.77v21.258zm263.873 142.306c0 20.953-17.047 38-38 38h-396c-20.953 0-38-17.047-38-38v-166.225c19.221 26.585 50.483 43.919 85.723 43.919h102.404v14.306c0 26.468 21.532 48 48 48s48-21.532 48-48v-14.306h102.15c35.239 0 66.502-17.334 85.723-43.919z"/><path id="XMLID_148_" d="m256.13 136.08c2.63 0 5.21-1.061 7.07-2.931 1.859-1.859 2.93-4.439 2.93-7.069s-1.07-5.21-2.93-7.07-4.44-2.93-7.07-2.93-5.21 1.069-7.08 2.93c-1.86 1.86-2.92 4.44-2.92 7.07s1.06 5.21 2.92 7.069c1.87 1.871 4.45 2.931 7.08 2.931z"/></g></g></svg>