<svg id="Capa_1" enable-background="new 0 0 512 512" height="512" viewBox="0 0 512 512" width="512" xmlns="http://www.w3.org/2000/svg"><g id="XMLID_1758_"><path id="XMLID_1702_" d="m148 118v40.167c0 59.647 48.353 108 108 108 59.647 0 108-48.353 108-108v-40.167c0-59.647-48.353-108-108-108-59.647 0-108 48.353-108 108z" fill="#f3c9a6"/><g id="XMLID_1639_"><path id="XMLID_1640_" d="m210 260v34h-76c-62.961 0-114 51.039-114 114v94h472v-94c0-62.961-51.039-114-114-114h-76v-34z" fill="#a7bcce"/></g><path id="XMLID_1676_" d="m302 260v34c0 25.405-20.595 46-46 46s-46-20.595-46-46v-34z" fill="#f3c9a6"/><g id="XMLID_513_"><path id="XMLID_1016_" d="m378 284h-66v-21.991c36.889-19.973 62-59.029 62-103.842v-40.167c0-65.065-52.935-118-118-118s-118 52.935-118 118v40.167c0 44.812 25.111 83.869 62 103.842v21.991h-66c-18.192 0-35.725 3.853-52.111 11.451-5.01 2.323-7.188 8.268-4.865 13.279 1.692 3.649 5.305 5.796 9.079 5.796 1.407 0 2.839-.299 4.2-.93 13.73-6.368 28.432-9.596 43.697-9.596h66.912c4.73 26.121 27.624 46 55.088 46s50.357-19.879 55.088-46h66.912c57.346 0 104 46.654 104 104v84h-452v-84c0-12 2.023-23.759 6.016-34.951 1.856-5.202-.857-10.923-6.059-12.778-5.203-1.855-10.923.856-12.778 6.06-4.764 13.353-7.179 27.373-7.179 41.669v94c0 5.523 4.477 10 10 10h472c5.522 0 10-4.477 10-10v-94c0-68.374-55.626-124-124-124zm-220-125.833v-40.167c0-54.038 43.963-98 98-98s98 43.962 98 98v40.167c0 54.037-43.963 97.999-98 97.999s-98-43.962-98-97.999zm98 171.833c-19.851 0-36-16.149-36-36v-23.456c11.355 3.646 23.45 5.623 36 5.623s24.646-1.977 36-5.623v23.456c0 19.851-16.149 36-36 36z"/><path id="XMLID_1023_" d="m282.207 103.707c0 14.45-11.757 26.207-26.207 26.207-5.523 0-10 4.477-10 10v28.418c0 5.523 4.477 10 10 10 5.522 0 10-4.477 10-10v-19.508c20.689-4.582 36.207-23.071 36.207-45.117 0-25.479-20.729-46.207-46.207-46.207s-46.207 20.728-46.207 46.207c0 5.523 4.477 10 10 10 5.522 0 10-4.477 10-10 0-14.451 11.757-26.207 26.207-26.207s26.207 11.757 26.207 26.207z"/><path id="XMLID_1055_" d="m263.069 215.74c1.86-1.87 2.931-4.44 2.931-7.07s-1.07-5.21-2.931-7.07c-1.859-1.87-4.439-2.93-7.069-2.93s-5.21 1.06-7.07 2.93c-1.86 1.86-2.93 4.43-2.93 7.07 0 2.63 1.069 5.21 2.93 7.07 1.86 1.86 4.44 2.93 7.07 2.93s5.21-1.07 7.069-2.93z"/><path id="XMLID_1056_" d="m49.81 341.14c2.641 0 5.21-1.07 7.07-2.93 1.87-1.86 2.93-4.44 2.93-7.07s-1.06-5.21-2.93-7.079c-1.86-1.86-4.44-2.921-7.07-2.921s-5.21 1.06-7.069 2.921c-1.86 1.87-2.931 4.44-2.931 7.079 0 2.63 1.07 5.21 2.931 7.07 1.859 1.86 4.439 2.93 7.069 2.93z"/></g></g></svg>