<svg height="512pt" viewBox="0 0 512 512.00038" width="512pt" xmlns="http://www.w3.org/2000/svg" xmlns:xlink="http://www.w3.org/1999/xlink"><linearGradient id="a" gradientUnits="userSpaceOnUse" x1="116.4724094584" x2="485.3952722936" y1="-12.8049247178" y2="697.9363124434"><stop offset="0" stop-color="#fffcf8"/><stop offset=".1875" stop-color="#faf8f6"/><stop offset=".4041" stop-color="#eceef2"/><stop offset=".6353" stop-color="#d5dcea"/><stop offset=".875" stop-color="#b5c4df"/><stop offset="1" stop-color="#a1b5d8"/></linearGradient><linearGradient id="b"><stop offset="0" stop-color="#a1b5d8" stop-opacity="0"/><stop offset=".3094" stop-color="#90a2bd" stop-opacity=".309804"/><stop offset=".7554" stop-color="#7c8b9c" stop-opacity=".756863"/><stop offset="1" stop-color="#748290"/></linearGradient><linearGradient id="c" gradientUnits="userSpaceOnUse" x1="196.3726539866" x2="-671.0159540134" xlink:href="#b" y1="222.4596783332" y2="-265.4464136668"/><linearGradient id="d" gradientUnits="userSpaceOnUse" x1="256.0003" x2="256.0003" xlink:href="#b" y1="451.9660859688" y2="531.7738692808"/><linearGradient id="e" gradientUnits="userSpaceOnUse" x1="423.506191583" x2="72.2556688904" xlink:href="#b" y1="422.9150930938" y2="71.6646707934"/><linearGradient id="f" gradientUnits="userSpaceOnUse" x1="236.6364516796" x2="283.6559416872" y1="199.8905078512" y2="336.8001698168"><stop offset="0" stop-color="#e52d27"/><stop offset="1" stop-color="#b31217"/></linearGradient><path d="m420.421875 503.234375c-109.503906 11.6875-219.339844 11.6875-328.84375 0-43.664063-4.660156-78.152344-39.148437-82.8125-82.816406-11.6875-109.503907-11.6875-219.335938 0-328.839844 4.660156-43.664063 39.148437-78.152344 82.8125-82.8125 109.503906-11.6875 219.335937-11.6875 328.839844 0 43.667969 4.660156 78.15625 39.148437 82.816406 82.8125 11.6875 109.503906 11.6875 219.335937 0 328.839844-4.660156 43.667969-39.144531 78.15625-82.8125 82.816406zm0 0" fill="url(#a)"/><path d="m475.386719 110.097656c-4.132813-38.746094-34.734375-69.351562-73.484375-73.488281-97.171875-10.367187-194.632813-10.367187-291.804688 0-38.746094 4.136719-69.351562 34.742187-73.488281 73.488281-10.367187 97.171875-10.367187 194.632813 0 291.800782 4.136719 38.75 34.742187 69.355468 73.488281 73.488281 97.171875 10.371093 194.632813 10.371093 291.800782 0 38.75-4.132813 69.355468-34.738281 73.488281-73.488281 10.371093-97.167969 10.371093-194.628907 0-291.800782zm0 0" fill="url(#c)"/><path d="m7.671875 409.804688c.351563 3.539062.714844 7.078124 1.09375 10.617187 4.660156 43.664063 39.148437 78.152344 82.816406 82.8125 109.503907 11.6875 219.335938 11.6875 328.839844 0 43.667969-4.660156 78.152344-39.148437 82.8125-82.8125.378906-3.539063.742187-7.078125 1.097656-10.617187zm0 0" fill="url(#d)"/><path d="m420.421875 503.234375c43.667969-4.660156 78.152344-39.148437 82.8125-82.816406 5.113281-47.882813 7.988281-95.828125 8.628906-143.785157l-111.21875-111.214843c-5.710937-7.078125-10.875-7.734375-21.578125-9.824219-8.671875-1.695312-17.542968-2.851562-26.367187-3.199219-28.214844-1.113281-56.449219-2.171875-84.683594-2.441406-41.457031-.394531-82.921875-.257813-124.214844 4.539063-17.804687 2.066406-36.625 16.03125-38.644531 35.066406-1.035156 9.78125-2.832031 19.507812-3.390625 29.3125-2.042969 35.707031-2.46875 71.394531 2.523437 106.960937 1.671876 11.910157 3.511719 17.359375 11.539063 24l162.011719 162.011719c47.550781-.675781 95.097656-3.542969 142.582031-8.609375zm0 0" fill="url(#e)"/><path d="m264.773438 366.203125c-41.328126-1.386719-73.316407-2.175781-105.265626-3.699219-9.75-.46875-19.785156-1.792968-29.019531-4.792968-16.996093-5.515626-26.691406-17.945313-29.210937-35.894532-4.992188-35.566406-4.566406-71.253906-2.523438-106.960937.5625-9.804688 2.359375-19.53125 3.394532-29.3125 2.011718-19.035157 20.835937-33.003907 38.640624-35.066407 41.296876-4.796874 82.757813-4.933593 124.21875-4.539062 28.234376.269531 56.464844 1.328125 84.679688 2.441406 8.824219.347656 17.695312 1.507813 26.367188 3.199219 19.109374 3.730469 30.164062 15.683594 33.53125 34.882813 4.554687 25.976562 5.746093 52.203124 4.789062 78.441406-.722656 19.859375-2.769531 39.6875-4.828125 59.46875-2.273437 21.832031-21.175781 34.761718-38.199219 35.882812-38.582031 2.542969-77.207031 4.347656-106.574218 5.949219zm0 0" fill="url(#f)"/><path d="m225.800781 304.300781c26.679688-16.378906 52.707031-32.367187 79.515625-48.828125-26.753906-16.441406-52.777344-32.433594-79.515625-48.863281zm0 0" fill="#fff"/></svg>